0
SECTION
2
HEADER
9
$INSUNITS
70
4
9
$ACADVER
1
AC1014
9
$HANDSEED
5
FFFF
0
ENDSEC
0
SECTION
2
TABLES
0
TABLE
2
VPORT
5
8
100
AcDbSymbolTable
0
ENDTAB
0
TABLE
2
LTYPE
5
5
100
AcDbSymbolTable
70
2
0
LTYPE
5
14
100
AcDbSymbolTableRecord
100
AcDbLinetypeTableRecord
2
BYBLOCK
70
0
0
LTYPE
5
15
100
AcDbSymbolTableRecord
100
AcDbLinetypeTableRecord
2
BYLAYER
70
0
0
ENDTAB
0
TABLE
2
LAYER
5
2
100
AcDbSymbolTable
70
3
0
LAYER
5
50
100
AcDbSymbolTableRecord
100
AcDbLayerTableRecord
2
0
70
0
6
CONTINUOUS
0
LAYER
5
51
100
AcDbSymbolTableRecord
100
AcDbLayerTableRecord
2
CUTOUTS
70
0
62
1
6
CONTINUOUS
0
LAYER
5
52
100
AcDbSymbolTableRecord
100
AcDbLayerTableRecord
2
PERIMETER
70
0
62
5
6
CONTINUOUS
0
ENDTAB
0
TABLE
2
STYLE
5
3
100
AcDbSymbolTable
70
1
0
STYLE
5
11
100
AcDbSymbolTableRecord
100
AcDbTextStyleTableRecord
2
STANDARD
70
0
0
ENDTAB
0
TABLE
2
VIEW
5
6
100
AcDbSymbolTable
0
ENDTAB
0
TABLE
2
UCS
5
7
100
AcDbSymbolTable
0
ENDTAB
0
TABLE
2
APPID
5
9
100
AcDbSymbolTable
70
1
0
APPID
5
12
100
AcDbSymbolTableRecord
100
AcDbRegAppTableRecord
2
ACAD
70
0
0
ENDTAB
0
TABLE
2
DIMSTYLE
5
A
100
AcDbSymbolTable
0
ENDTAB
0
TABLE
2
BLOCK_RECORD
5
1
100
AcDbSymbolTable
70
2
0
BLOCK_RECORD
5
1F
100
AcDbSymbolTableRecord
100
AcDbBlockTableRecord
2
*MODEL_SPACE
0
BLOCK_RECORD
5
1B
100
AcDbSymbolTableRecord
100
AcDbBlockTableRecord
2
*PAPER_SPACE
0
ENDTAB
0
ENDSEC
0
SECTION
2
BLOCKS
0
BLOCK
5
20
100
AcDbEntity
100
AcDbBlockBegin
2
*MODEL_SPACE
0
ENDBLK
5
21
100
AcDbEntity
100
AcDbBlockEnd
0
BLOCK
5
1C
100
AcDbEntity
100
AcDbBlockBegin
2
*PAPER_SPACE
0
ENDBLK
5
1D
100
AcDbEntity
100
AcDbBlockEnd
0
ENDSEC
0
SECTION
2
ENTITIES
0
LINE
5
100
100
AcDbEntity
8
CUTOUTS
100
AcDbLine
10
-57.895000000000003
20
-25.499999999999972
30
2.2204460492503131e-15
11
-57.895000000000003
21
-17.999999999999989
31
2.2204460492503131e-15
0
ARC
5
101
100
AcDbEntity
8
CUTOUTS
100
AcDbCircle
10
-57.000000000000028
20
-17.999999999999954
30
2.2204460492503131e-15
40
0.8949999999999747
210
-7.8886090522101181e-31
220
3.1313932163683949e-44
230
1
100
AcDbArc
50
89.99999999999774
51
180
0
LINE
5
102
100
AcDbEntity
8
CUTOUTS
100
AcDbLine
10
-56.999999999999993
20
-17.104999999999979
30
4.4408920985006262e-15
11
-41.499999999999986
21
-17.104999999999979
31
4.4408920985006262e-15
0
ARC
5
103
100
AcDbEntity
8
CUTOUTS
100
AcDbCircle
10
-41.500000000000021
20
-18.000000000000025
30
0
40
0.89500000000001023
210
7.8886090522101181e-31
220
3.1313932163682704e-44
230
1
100
AcDbArc
50
0
51
89.99999999999774
0
LINE
5
104
100
AcDbEntity
8
CUTOUTS
100
AcDbLine
10
-40.605000000000011
20
-17.999999999999989
30
0
11
-40.605000000000011
21
-25.499999999999936
31
0
0
ARC
5
105
100
AcDbEntity
8
CUTOUTS
100
AcDbCircle
10
-41.499999999999986
20
-25.499999999999989
30
0
40
0.8949999999999747
210
-7.8886090522101181e-31
220
3.1169020766301239e-44
230
1
100
AcDbArc
50
-90.000000000002288
51
0
0
LINE
5
106
100
AcDbEntity
8
CUTOUTS
100
AcDbLine
10
-41.500000000000021
20
-26.394999999999982
30
2.2204460492503131e-15
11
-57.000000000000014
21
-26.394999999999964
31
2.2204460492503131e-15
0
ARC
5
107
100
AcDbEntity
8
CUTOUTS
100
AcDbCircle
10
-57.000000000000014
20
-25.499999999999972
30
2.2204460492503131e-15
40
0.89499999999999247
210
0
220
-2.775557561562892e-17
230
1
100
AcDbArc
50
180
51
270
0
ARC
5
108
100
AcDbEntity
8
CUTOUTS
100
AcDbCircle
10
-21.750000000000007
20
-18.000000000000007
30
-2.2204460492503131e-15
40
0.89499999999999247
210
2.7544026020286965e-31
220
-2.775557561562892e-17
230
1
100
AcDbArc
50
0
51
89.999999999998863
0
LINE
5
109
100
AcDbEntity
8
CUTOUTS
100
AcDbLine
10
-37.25
20
-17.104999999999979
30
4.4408920985006262e-15
11
-21.749999999999989
21
-17.104999999999979
31
4.4408920985006262e-15
0
ARC
5
10A
100
AcDbEntity
8
CUTOUTS
100
AcDbCircle
10
-37.250000000000014
20
-17.999999999999954
30
2.2204460492503131e-15
40
0.8949999999999747
210
-3.944304526105059e-31
220
7.8284830409209871e-45
230
1
100
AcDbArc
50
89.999999999999091
51
180
0
LINE
5
10B
100
AcDbEntity
8
CUTOUTS
100
AcDbLine
10
-38.14500000000001
20
-25.499999999999972
30
2.2204460492503131e-15
11
-38.144999999999989
21
-17.999999999999989
31
2.2204460492503131e-15
0
ARC
5
10C
100
AcDbEntity
8
CUTOUTS
100
AcDbCircle
10
-37.250000000000014
20
-25.499999999999972
30
2.2204460492503131e-15
40
0.89499999999999247
210
0
220
-2.775557561562892e-17
230
1
100
AcDbArc
50
180
51
270
0
LINE
5
10D
100
AcDbEntity
8
CUTOUTS
100
AcDbLine
10
-21.750000000000025
20
-26.394999999999982
30
2.2204460492503131e-15
11
-37.250000000000014
21
-26.394999999999964
31
2.2204460492503131e-15
0
ARC
5
10E
100
AcDbEntity
8
CUTOUTS
100
AcDbCircle
10
-21.750000000000007
20
-25.499999999999989
30
0
40
0.8949999999999747
210
-3.944304526105059e-31
220
7.7560273422296326e-45
230
1
100
AcDbArc
50
-90.000000000001123
51
0
0
LINE
5
10F
100
AcDbEntity
8
CUTOUTS
100
AcDbLine
10
-20.855000000000015
20
-17.999999999999989
30
0
11
-20.855000000000015
21
-25.499999999999936
31
0
0
ARC
5
110
100
AcDbEntity
8
CUTOUTS
100
AcDbCircle
10
-21.749999999999972
20
-29.999999999999982
30
0
40
0.89500000000001023
210
7.8886090522101181e-31
220
3.1458843561065413e-44
230
1
100
AcDbArc
50
90.000000000002288
51
180
0
LINE
5
111
100
AcDbEntity
8
CUTOUTS
100
AcDbLine
10
-22.645
20
-45
30
0
11
-22.644999999999982
21
-29.999999999999964
31
0
0
ARC
5
112
100
AcDbEntity
8
CUTOUTS
100
AcDbCircle
10
-21.750000000000025
20
-45.000000000000014
30
4.4408920985006262e-15
40
0.8949999999999747
210
-5.5088052040575008e-31
220
1.0933635532012861e-44
230
1
100
AcDbArc
50
180
51
270.00000000000114
0
LINE
5
113
100
AcDbEntity
8
CUTOUTS
100
AcDbLine
10
-6.7500000000000071
20
-45.894999999999953
30
4.4408920985006262e-15
11
-21.750000000000007
21
-45.894999999999975
31
4.4408920985006262e-15
0
ARC
5
114
100
AcDbEntity
8
CUTOUTS
100
AcDbCircle
10
-6.7499999999999716
20
-45.000000000000036
30
0
40
0.89499999999993918
210
5.5088052040577206e-31
220
1.3877787807814457e-17
230
1
100
AcDbArc
50
-90.000000000002288
51
0
0
LINE
5
115
100
AcDbEntity
8
CUTOUTS
100
AcDbLine
10
-5.8549999999999969
20
-29.999999999999947
30
0
11
-5.8550000000000324
21
-44.999999999999964
31
0
0
ARC
5
116
100
AcDbEntity
8
CUTOUTS
100
AcDbCircle
10
-6.7499999999999716
20
-29.999999999999911
30
0
40
0.8949999999999747
210
-7.8886090522101181e-31
220
3.1313932163683949e-44
230
1
100
AcDbArc
50
0
51
90.000000000002288
0
LINE
5
117
100
AcDbEntity
8
CUTOUTS
100
AcDbLine
10
-21.750000000000007
20
-29.104999999999972
30
-2.2204460492503131e-15
11
-6.7500000000000071
21
-29.104999999999936
31
-2.2204460492503131e-15
0
LINE
5
118
100
AcDbEntity
8
CUTOUTS
100
AcDbLine
10
-79.855000000000004
20
-17.999999999999989
30
0
11
-79.855000000000004
21
-25.499999999999936
31
0
0
ARC
5
119
100
AcDbEntity
8
CUTOUTS
100
AcDbCircle
10
-80.750000000000014
20
-25.499999999999972
30
2.2204460492503131e-15
40
0.89499999999999247
210
-7.822503389761657e-32
220
-2.7755575615628914e-17
230
1
100
AcDbArc
50
-90.000000000000924
51
0
0
LINE
5
11A
100
AcDbEntity
8
CUTOUTS
100
AcDbLine
10
-80.750000000000028
20
-26.394999999999982
30
2.2204460492503131e-15
11
-96.250000000000028
21
-26.394999999999964
31
2.2204460492503131e-15
0
ARC
5
11B
100
AcDbEntity
8
CUTOUTS
100
AcDbCircle
10
-96.250000000000014
20
-25.499999999999972
30
2.2204460492503131e-15
40
0.89499999999999247
210
0
220
-2.775557561562892e-17
230
1
100
AcDbArc
50
180
51
270
0
LINE
5
11C
100
AcDbEntity
8
CUTOUTS
100
AcDbLine
10
-97.14500000000001
20
-25.499999999999972
30
2.2204460492503131e-15
11
-97.144999999999996
21
-17.999999999999989
31
2.2204460492503131e-15
0
ARC
5
11D
100
AcDbEntity
8
CUTOUTS
100
AcDbCircle
10
-96.25
20
-17.999999999999972
30
-2.2204460492503131e-15
40
0.89499999999999247
210
0
220
-2.7755575615628914e-17
230
1
100
AcDbArc
50
90
51
180
0
LINE
5
11E
100
AcDbEntity
8
CUTOUTS
100
AcDbLine
10
-96.25
20
-17.104999999999979
30
4.4408920985006262e-15
11
-80.750000000000014
21
-17.104999999999979
31
4.4408920985006262e-15
0
ARC
5
11F
100
AcDbEntity
8
CUTOUTS
100
AcDbCircle
10
-80.750000000000028
20
-18.000000000000007
30
-2.2204460492503131e-15
40
0.89500000000003688
210
2.754402602028559e-31
220
1.3877787807814457e-17
230
1
100
AcDbArc
50
0
51
89.999999999999091
0
LINE
5
120
100
AcDbEntity
8
CUTOUTS
100
AcDbLine
10
70.14500000000001
20
-29.999999999999947
30
0
11
70.144999999999982
21
-44.999999999999943
31
0
0
ARC
5
121
100
AcDbEntity
8
CUTOUTS
100
AcDbCircle
10
69.249999999999972
20
-44.999999999999986
30
4.4408920985006262e-15
40
0.89499999999999247
210
-7.8886090522101181e-31
220
-3.1313932163683326e-44
230
1
100
AcDbArc
50
-89.999999999998181
51
0
0
LINE
5
122
100
AcDbEntity
8
CUTOUTS
100
AcDbLine
10
69.25
20
-45.894999999999953
30
4.4408920985006262e-15
11
54.249999999999972
21
-45.894999999999939
31
4.4408920985006254e-15
0
ARC
5
123
100
AcDbEntity
8
CUTOUTS
100
AcDbCircle
10
54.249999999999936
20
-45.000000000000014
30
4.4408920985006262e-15
40
0.89499999999993918
210
2.7544026020288594e-31
220
1.3877787807814454e-17
230
1
100
AcDbArc
50
180
51
270.00000000000222
0
LINE
5
124
100
AcDbEntity
8
CUTOUTS
100
AcDbLine
10
53.354999999999997
20
-45
30
0
11
53.354999999999961
21
-29.999999999999964
31
0
0
ARC
5
125
100
AcDbEntity
8
CUTOUTS
100
AcDbCircle
10
54.249999999999936
20
-29.999999999999929
30
2.2204460492503131e-15
40
0.89499999999995694
210
0
220
-0
230
1
100
AcDbArc
50
89.99999999999774
51
180
0
LINE
5
126
100
AcDbEntity
8
CUTOUTS
100
AcDbLine
10
54.249999999999972
20
-29.104999999999972
30
-2.2204460492503131e-15
11
69.250000000000043
21
-29.104999999999919
31
-2.2204460492503131e-15
0
ARC
5
127
100
AcDbEntity
8
CUTOUTS
100
AcDbCircle
10
69.249999999999972
20
-29.999999999999964
30
2.2204460492503131e-15
40
0.89500000000004576
210
0
220
-0
230
1
100
AcDbArc
50
0
51
89.999999999995467
0
ARC
5
128
100
AcDbEntity
8
CUTOUTS
100
AcDbCircle
10
88.250000000000028
20
-29.999999999999929
30
2.2204460492503131e-15
40
0.89500000000001023
210
-5.5088052040572818e-31
220
1.0933635532011991e-44
230
1
100
AcDbArc
50
0
51
90
0
LINE
5
129
100
AcDbEntity
8
CUTOUTS
100
AcDbLine
10
73.25
20
-29.104999999999972
30
-2.2204460492503131e-15
11
88.250000000000028
21
-29.104999999999919
31
-2.2204460492503131e-15
0
ARC
5
12A
100
AcDbEntity
8
CUTOUTS
100
AcDbCircle
10
73.25
20
-29.999999999999947
30
0
40
0.8949999999999747
210
0
220
-0
230
1
100
AcDbArc
50
90
51
180
0
LINE
5
12B
100
AcDbEntity
8
CUTOUTS
100
AcDbLine
10
72.355000000000018
20
-45
30
0
11
72.355000000000018
21
-29.999999999999964
31
0
0
ARC
5
12C
100
AcDbEntity
8
CUTOUTS
100
AcDbCircle
10
73.25
20
-45
30
0
40
0.8949999999999747
210
0
220
0
230
1
100
AcDbArc
50
180
51
270
0
LINE
5
12D
100
AcDbEntity
8
CUTOUTS
100
AcDbLine
10
88.250000000000028
20
-45.894999999999953
30
4.4408920985006262e-15
11
73.25
21
-45.894999999999953
31
4.4408920985006262e-15
0
ARC
5
12E
100
AcDbEntity
8
CUTOUTS
100
AcDbCircle
10
88.250000000000028
20
-45.000000000000014
30
4.4408920985006262e-15
40
0.89499999999995694
210
0
220
-1.3877787807814183e-17
230
1
100
AcDbArc
50
-90
51
0
0
LINE
5
12F
100
AcDbEntity
8
CUTOUTS
100
AcDbLine
10
89.145000000000039
20
-29.999999999999947
30
0
11
89.144999999999968
21
-44.999999999999943
31
0
0
ARC
5
130
100
AcDbEntity
8
CUTOUTS
100
AcDbCircle
10
92.249999999999972
20
-29.999999999999947
30
0
40
0.8949999999999747
210
0
220
-0
230
1
100
AcDbArc
50
90
51
180
0
LINE
5
131
100
AcDbEntity
8
CUTOUTS
100
AcDbLine
10
91.355000000000004
20
-45
30
0
11
91.355000000000004
21
-29.999999999999964
31
0
0
ARC
5
132
100
AcDbEntity
8
CUTOUTS
100
AcDbCircle
10
92.249999999999972
20
-45
30
0
40
0.8949999999999747
210
0
220
0
230
1
100
AcDbArc
50
180
51
270
0
LINE
5
133
100
AcDbEntity
8
CUTOUTS
100
AcDbLine
10
107.25000000000001
20
-45.894999999999953
30
4.4408920985006262e-15
11
92.249999999999972
21
-45.894999999999953
31
4.4408920985006262e-15
0
ARC
5
134
100
AcDbEntity
8
CUTOUTS
100
AcDbCircle
10
107.25000000000001
20
-45.000000000000014
30
4.4408920985006262e-15
40
0.89499999999995694
210
0
220
-1.3877787807814183e-17
230
1
100
AcDbArc
50
-90
51
0
0
LINE
5
135
100
AcDbEntity
8
CUTOUTS
100
AcDbLine
10
108.14500000000002
20
-29.999999999999947
30
0
11
108.14499999999995
21
-44.999999999999943
31
0
0
ARC
5
136
100
AcDbEntity
8
CUTOUTS
100
AcDbCircle
10
107.25000000000001
20
-29.999999999999929
30
2.2204460492503131e-15
40
0.89500000000001023
210
-5.5088052040572818e-31
220
1.0933635532011991e-44
230
1
100
AcDbArc
50
0
51
90
0
LINE
5
137
100
AcDbEntity
8
CUTOUTS
100
AcDbLine
10
92.249999999999972
20
-29.104999999999972
30
-2.2204460492503131e-15
11
107.25000000000001
21
-29.104999999999919
31
-2.2204460492503131e-15
0
LINE
5
138
100
AcDbEntity
8
CUTOUTS
100
AcDbLine
10
135.74999999999994
20
-45.894999999999953
30
4.4408920985006262e-15
11
111.24999999999997
21
-45.894999999999953
31
4.4408920985006262e-15
0
ARC
5
139
100
AcDbEntity
8
CUTOUTS
100
AcDbCircle
10
111.24999999999997
20
-45
30
0
40
0.8949999999999747
210
0
220
0
230
1
100
AcDbArc
50
180
51
270
0
LINE
5
13A
100
AcDbEntity
8
CUTOUTS
100
AcDbLine
10
110.35499999999999
20
-45
30
0
11
110.35499999999999
21
-30
31
0
0
ARC
5
13B
100
AcDbEntity
8
CUTOUTS
100
AcDbCircle
10
111.25
20
-29.999999999999964
30
2.2204460492503131e-15
40
0.89499999999999247
210
0
220
-2.7755575615628914e-17
230
1
100
AcDbArc
50
90
51
180
0
LINE
5
13C
100
AcDbEntity
8
CUTOUTS
100
AcDbLine
10
111.25
20
-29.104999999999972
30
-2.2204460492503131e-15
11
135.74999999999994
21
-29.104999999999954
31
-2.2204460492503131e-15
0
ARC
5
13D
100
AcDbEntity
8
CUTOUTS
100
AcDbCircle
10
135.74999999999994
20
-29.999999999999964
30
2.2204460492503131e-15
40
0.89500000000001023
210
-5.5088052040572818e-31
220
1.0933635532011991e-44
230
1
100
AcDbArc
50
0
51
90
0
LINE
5
13E
100
AcDbEntity
8
CUTOUTS
100
AcDbLine
10
136.64499999999998
20
-29.999999999999982
30
0
11
136.6449999999999
21
-44.999999999999943
31
0
0
ARC
5
13F
100
AcDbEntity
8
CUTOUTS
100
AcDbCircle
10
135.74999999999994
20
-45.000000000000014
30
4.4408920985006262e-15
40
0.89499999999995694
210
0
220
-1.3877787807814183e-17
230
1
100
AcDbArc
50
-90
51
0
0
LINE
5
140
100
AcDbEntity
8
CUTOUTS
100
AcDbLine
10
120.25000000000003
20
-17.104999999999961
30
2.2204460492503131e-15
11
135.75000000000003
21
-17.104999999999961
31
2.2204460492503131e-15
0
ARC
5
141
100
AcDbEntity
8
CUTOUTS
100
AcDbCircle
10
135.75000000000003
20
-17.999999999999972
30
-2.2204460492503131e-15
40
0.89500000000004576
210
-0
220
0
230
1
100
AcDbArc
50
0
51
90
0
LINE
5
142
100
AcDbEntity
8
CUTOUTS
100
AcDbLine
10
136.64500000000007
20
-17.999999999999989
30
0
11
136.64500000000004
21
-25.499999999999936
31
0
0
ARC
5
143
100
AcDbEntity
8
CUTOUTS
100
AcDbCircle
10
135.74999999999994
20
-25.499999999999936
30
2.2204460492503131e-15
40
0.89500000000004576
210
-0
220
0
230
1
100
AcDbArc
50
-89.999999999996334
51
0
0
LINE
5
144
100
AcDbEntity
8
CUTOUTS
100
AcDbLine
10
135.75
20
-26.395
30
0
11
120.24999999999999
21
-26.394999999999982
31
0
0
ARC
5
145
100
AcDbEntity
8
CUTOUTS
100
AcDbCircle
10
120.24999999999994
20
-25.500000000000007
30
2.2204460492503131e-15
40
0.8949999999999747
210
-8.2632078060862521e-31
220
3.2800906596038589e-44
230
1
100
AcDbArc
50
180
51
270.00000000000273
0
LINE
5
146
100
AcDbEntity
8
CUTOUTS
100
AcDbLine
10
119.35499999999998
20
-25.499999999999972
30
2.2204460492503131e-15
11
119.35500000000002
21
-17.999999999999989
31
2.2204460492503131e-15
0
ARC
5
147
100
AcDbEntity
8
CUTOUTS
100
AcDbCircle
10
120.25000000000006
20
-18.000000000000007
30
-2.2204460492503131e-15
40
0.89500000000004576
210
0
220
0
230
1
100
AcDbArc
50
90.000000000001805
51
180
0
LINE
5
148
100
AcDbEntity
8
CUTOUTS
100
AcDbLine
10
116.64500000000007
20
-17.999999999999989
30
0
11
116.64500000000004
21
-25.499999999999936
31
0
0
ARC
5
149
100
AcDbEntity
8
CUTOUTS
100
AcDbCircle
10
115.74999999999996
20
-25.499999999999936
30
2.2204460492503131e-15
40
0.89500000000004576
210
-0
220
0
230
1
100
AcDbArc
50
-89.999999999997257
51
0
0
LINE
5
14A
100
AcDbEntity
8
CUTOUTS
100
AcDbLine
10
115.75
20
-26.395
30
0
11
100.24999999999999
21
-26.394999999999982
31
0
0
ARC
5
14B
100
AcDbEntity
8
CUTOUTS
100
AcDbCircle
10
100.24999999999994
20
-25.500000000000007
30
2.2204460492503131e-15
40
0.8949999999999747
210
-8.2632078060862521e-31
220
3.2800906596038589e-44
230
1
100
AcDbArc
50
180
51
270.00000000000273
0
LINE
5
14C
100
AcDbEntity
8
CUTOUTS
100
AcDbLine
10
99.354999999999976
20
-25.499999999999972
30
2.2204460492503131e-15
11
99.355000000000018
21
-17.999999999999989
31
2.2204460492503131e-15
0
ARC
5
14D
100
AcDbEntity
8
CUTOUTS
100
AcDbCircle
10
100.25000000000006
20
-18.000000000000007
30
-2.2204460492503131e-15
40
0.89500000000004576
210
0
220
0
230
1
100
AcDbArc
50
90.000000000001805
51
180
0
LINE
5
14E
100
AcDbEntity
8
CUTOUTS
100
AcDbLine
10
100.25000000000003
20
-17.104999999999961
30
2.2204460492503131e-15
11
115.75000000000003
21
-17.104999999999961
31
2.2204460492503131e-15
0
ARC
5
14F
100
AcDbEntity
8
CUTOUTS
100
AcDbCircle
10
115.75000000000003
20
-17.999999999999972
30
-2.2204460492503131e-15
40
0.89500000000004576
210
-0
220
0
230
1
100
AcDbArc
50
0
51
90
0
ARC
5
150
100
AcDbEntity
8
CUTOUTS
100
AcDbCircle
10
96.25
20
-18.000000000000007
30
-2.2204460492503131e-15
40
0.89500000000004576
210
0
220
-0
230
1
100
AcDbArc
50
0
51
89.999999999998181
0
LINE
5
151
100
AcDbEntity
8
CUTOUTS
100
AcDbLine
10
80.750000000000028
20
-17.104999999999997
30
6.6613381477509392e-15
11
96.250000000000028
21
-17.104999999999997
31
6.6613381477509392e-15
0
ARC
5
152
100
AcDbEntity
8
CUTOUTS
100
AcDbCircle
10
80.750000000000028
20
-17.999999999999972
30
-2.2204460492503131e-15
40
0.8949999999999747
210
0
220
-0
230
1
100
AcDbArc
50
90
51
180
0
LINE
5
153
100
AcDbEntity
8
CUTOUTS
100
AcDbLine
10
79.855000000000018
20
-25.499999999999972
30
2.2204460492503131e-15
11
79.855000000000018
21
-17.999999999999989
31
2.2204460492503131e-15
0
ARC
5
154
100
AcDbEntity
8
CUTOUTS
100
AcDbCircle
10
80.75
20
-25.499999999999989
30
0
40
0.8949999999999747
210
-3.944304526105059e-31
220
7.8284830409209871e-45
230
1
100
AcDbArc
50
180
51
270
0
LINE
5
155
100
AcDbEntity
8
CUTOUTS
100
AcDbLine
10
96.25
20
-26.394999999999964
30
0
11
80.75
21
-26.394999999999946
31
0
0
ARC
5
156
100
AcDbEntity
8
CUTOUTS
100
AcDbCircle
10
96.25
20
-25.499999999999972
30
2.2204460492503131e-15
40
0.8949999999999747
210
-0
220
0
230
1
100
AcDbArc
50
-90
51
0
0
LINE
5
157
100
AcDbEntity
8
CUTOUTS
100
AcDbLine
10
97.145000000000039
20
-17.999999999999989
30
0
11
97.14500000000001
21
-25.499999999999936
31
0
0
LINE
5
158
100
AcDbEntity
8
CUTOUTS
100
AcDbLine
10
77.395000000000039
20
-17.999999999999989
30
0
11
77.394999999999996
21
-25.499999999999936
31
0
0
ARC
5
159
100
AcDbEntity
8
CUTOUTS
100
AcDbCircle
10
76.499999999999986
20
-25.499999999999972
30
2.2204460492503131e-15
40
0.8949999999999747
210
-0
220
0
230
1
100
AcDbArc
50
-90
51
0
0
LINE
5
15A
100
AcDbEntity
8
CUTOUTS
100
AcDbLine
10
76.499999999999986
20
-26.394999999999964
30
0
11
60.999999999999979
21
-26.394999999999946
31
0
0
ARC
5
15B
100
AcDbEntity
8
CUTOUTS
100
AcDbCircle
10
60.999999999999979
20
-25.499999999999989
30
0
40
0.8949999999999747
210
-3.944304526105059e-31
220
7.8284830409209871e-45
230
1
100
AcDbArc
50
180
51
270
0
LINE
5
15C
100
AcDbEntity
8
CUTOUTS
100
AcDbLine
10
60.105000000000004
20
-25.499999999999972
30
2.2204460492503131e-15
11
60.105000000000004
21
-17.999999999999989
31
2.2204460492503131e-15
0
ARC
5
15D
100
AcDbEntity
8
CUTOUTS
100
AcDbCircle
10
61.000000000000014
20
-17.999999999999972
30
-2.2204460492503131e-15
40
0.8949999999999747
210
0
220
-0
230
1
100
AcDbArc
50
90
51
180
0
LINE
5
15E
100
AcDbEntity
8
CUTOUTS
100
AcDbLine
10
61.000000000000014
20
-17.104999999999997
30
6.6613381477509392e-15
11
76.500000000000028
21
-17.104999999999997
31
6.6613381477509392e-15
0
ARC
5
15F
100
AcDbEntity
8
CUTOUTS
100
AcDbCircle
10
76.499999999999986
20
-18.000000000000007
30
-2.2204460492503131e-15
40
0.89500000000004576
210
0
220
-0
230
1
100
AcDbArc
50
0
51
89.999999999997272
0
LINE
5
160
100
AcDbEntity
8
CUTOUTS
100
AcDbLine
10
40.604999999999976
20
-25.499999999999972
30
2.2204460492503131e-15
11
40.605000000000011
21
-17.999999999999989
31
2.2204460492503131e-15
0
ARC
5
161
100
AcDbEntity
8
CUTOUTS
100
AcDbCircle
10
41.500000000000057
20
-18.000000000000007
30
-2.2204460492503131e-15
40
0.89500000000004576
210
0
220
0
230
1
100
AcDbArc
50
90.000000000002288
51
180
0
LINE
5
162
100
AcDbEntity
8
CUTOUTS
100
AcDbLine
10
41.500000000000021
20
-17.104999999999961
30
2.2204460492503131e-15
11
57.000000000000028
21
-17.104999999999961
31
2.2204460492503131e-15
0
ARC
5
163
100
AcDbEntity
8
CUTOUTS
100
AcDbCircle
10
57.000000000000028
20
-17.999999999999972
30
-2.2204460492503131e-15
40
0.89500000000004576
210
-0
220
0
230
1
100
AcDbArc
50
0
51
90
0
LINE
5
164
100
AcDbEntity
8
CUTOUTS
100
AcDbLine
10
57.895000000000074
20
-17.999999999999989
30
0
11
57.895000000000039
21
-25.499999999999936
31
0
0
ARC
5
165
100
AcDbEntity
8
CUTOUTS
100
AcDbCircle
10
56.999999999999957
20
-25.499999999999936
30
2.2204460492503131e-15
40
0.89500000000004576
210
-0
220
0
230
1
100
AcDbArc
50
-89.999999999997755
51
0
0
LINE
5
166
100
AcDbEntity
8
CUTOUTS
100
AcDbLine
10
56.999999999999993
20
-26.395
30
0
11
41.499999999999986
21
-26.394999999999982
31
0
0
ARC
5
167
100
AcDbEntity
8
CUTOUTS
100
AcDbCircle
10
41.49999999999995
20
-25.500000000000007
30
2.2204460492503131e-15
40
0.8949999999999747
210
-8.2632078060862521e-31
220
3.2800906596038589e-44
230
1
100
AcDbArc
50
180
51
270.00000000000222
0
ARC
5
168
100
AcDbEntity
8
CUTOUTS
100
AcDbCircle
10
21.750000000000043
20
-18.000000000000007
30
-2.2204460492503131e-15
40
0.89500000000004576
210
0
220
0
230
1
100
AcDbArc
50
90.000000000002288
51
180
0
LINE
5
169
100
AcDbEntity
8
CUTOUTS
100
AcDbLine
10
20.854999999999961
20
-25.499999999999972
30
2.2204460492503131e-15
11
20.854999999999997
21
-17.999999999999989
31
2.2204460492503131e-15
0
ARC
5
16A
100
AcDbEntity
8
CUTOUTS
100
AcDbCircle
10
21.749999999999936
20
-25.500000000000007
30
2.2204460492503131e-15
40
0.8949999999999747
210
-8.2632078060862521e-31
220
3.2800906596038589e-44
230
1
100
AcDbArc
50
180
51
270.00000000000222
0
LINE
5
16B
100
AcDbEntity
8
CUTOUTS
100
AcDbLine
10
37.249999999999979
20
-26.395
30
0
11
21.749999999999972
21
-26.394999999999982
31
0
0
ARC
5
16C
100
AcDbEntity
8
CUTOUTS
100
AcDbCircle
10
37.249999999999943
20
-25.499999999999936
30
2.2204460492503131e-15
40
0.89500000000004576
210
-0
220
0
230
1
100
AcDbArc
50
-89.999999999997755
51
0
0
LINE
5
16D
100
AcDbEntity
8
CUTOUTS
100
AcDbLine
10
38.14500000000006
20
-17.999999999999989
30
0
11
38.145000000000024
21
-25.499999999999936
31
0
0
ARC
5
16E
100
AcDbEntity
8
CUTOUTS
100
AcDbCircle
10
37.250000000000014
20
-17.999999999999972
30
-2.2204460492503131e-15
40
0.89500000000004576
210
-0
220
0
230
1
100
AcDbArc
50
0
51
90
0
LINE
5
16F
100
AcDbEntity
8
CUTOUTS
100
AcDbLine
10
21.750000000000007
20
-17.104999999999961
30
2.2204460492503131e-15
11
37.250000000000014
21
-17.104999999999961
31
2.2204460492503131e-15
0
LINE
5
170
100
AcDbEntity
8
CUTOUTS
100
AcDbLine
10
2.0000000000000107
20
-17.104999999999979
30
4.4408920985006262e-15
11
17.500000000000018
21
-17.104999999999979
31
4.4408920985006262e-15
0
ARC
5
171
100
AcDbEntity
8
CUTOUTS
100
AcDbCircle
10
17.500000000000018
20
-18.000000000000007
30
-2.2204460492503131e-15
40
0.89499999999999247
210
2.7544026020286965e-31
220
-2.775557561562892e-17
230
1
100
AcDbArc
50
0
51
90
0
LINE
5
172
100
AcDbEntity
8
CUTOUTS
100
AcDbLine
10
18.39500000000001
20
-17.999999999999989
30
0
11
18.39500000000001
21
-25.499999999999936
31
0
0
ARC
5
173
100
AcDbEntity
8
CUTOUTS
100
AcDbCircle
10
17.499999999999982
20
-25.499999999999954
30
0
40
0.89500000000001023
210
-0
220
0
230
1
100
AcDbArc
50
-90
51
0
0
LINE
5
174
100
AcDbEntity
8
CUTOUTS
100
AcDbLine
10
17.499999999999982
20
-26.394999999999982
30
2.2204460492503131e-15
11
1.9999999999999929
21
-26.394999999999964
31
2.2204460492503131e-15
0
ARC
5
175
100
AcDbEntity
8
CUTOUTS
100
AcDbCircle
10
1.9999999999999929
20
-25.499999999999972
30
2.2204460492503131e-15
40
0.89499999999999247
210
0
220
-2.775557561562892e-17
230
1
100
AcDbArc
50
180
51
270
0
LINE
5
176
100
AcDbEntity
8
CUTOUTS
100
AcDbLine
10
1.1050000000000004
20
-25.499999999999972
30
2.2204460492503131e-15
11
1.1050000000000182
21
-17.999999999999989
31
2.2204460492503131e-15
0
ARC
5
177
100
AcDbEntity
8
CUTOUTS
100
AcDbCircle
10
1.9999999999999929
20
-17.999999999999954
30
2.2204460492503131e-15
40
0.8949999999999747
210
-3.944304526105059e-31
220
7.950803088435378e-45
230
1
100
AcDbArc
50
89.999999999998849
51
180
0
LINE
5
178
100
AcDbEntity
8
CUTOUTS
100
AcDbLine
10
-17.5
20
-17.104999999999979
30
4.4408920985006262e-15
11
-1.9999999999999929
21
-17.104999999999979
31
4.4408920985006262e-15
0
ARC
5
179
100
AcDbEntity
8
CUTOUTS
100
AcDbCircle
10
-2.0000000000000284
20
-18.000000000000025
30
0
40
0.89500000000001023
210
7.8886090522101181e-31
220
3.1313932163682704e-44
230
1
100
AcDbArc
50
0
51
89.99999999999774
0
LINE
5
17A
100
AcDbEntity
8
CUTOUTS
100
AcDbLine
10
-1.1050000000000182
20
-17.999999999999989
30
0
11
-1.1050000000000182
21
-25.499999999999936
31
0
0
ARC
5
17B
100
AcDbEntity
8
CUTOUTS
100
AcDbCircle
10
-1.9999999999999929
20
-25.499999999999989
30
0
40
0.8949999999999747
210
-7.8886090522101181e-31
220
3.1413660861330019e-44
230
1
100
AcDbArc
50
-90.000000000002288
51
0
0
LINE
5
17C
100
AcDbEntity
8
CUTOUTS
100
AcDbLine
10
-2.0000000000000284
20
-26.394999999999982
30
2.2204460492503131e-15
11
-17.500000000000018
21
-26.394999999999964
31
2.2204460492503131e-15
0
ARC
5
17D
100
AcDbEntity
8
CUTOUTS
100
AcDbCircle
10
-17.500000000000018
20
-25.499999999999972
30
2.2204460492503131e-15
40
0.89499999999999247
210
0
220
-2.775557561562892e-17
230
1
100
AcDbArc
50
180
51
270
0
LINE
5
17E
100
AcDbEntity
8
CUTOUTS
100
AcDbLine
10
-18.39500000000001
20
-25.499999999999972
30
2.2204460492503131e-15
11
-18.39500000000001
21
-17.999999999999989
31
2.2204460492503131e-15
0
ARC
5
17F
100
AcDbEntity
8
CUTOUTS
100
AcDbCircle
10
-17.500000000000036
20
-17.999999999999954
30
2.2204460492503131e-15
40
0.8949999999999747
210
-7.8886090522101181e-31
220
3.1313932163683949e-44
230
1
100
AcDbArc
50
89.99999999999774
51
180
0
LINE
5
180
100
AcDbEntity
8
CUTOUTS
100
AcDbLine
10
-77.64500000000001
20
-25.499999999999972
30
2.2204460492503131e-15
11
-77.644999999999996
21
-17.999999999999989
31
2.2204460492503131e-15
0
ARC
5
181
100
AcDbEntity
8
CUTOUTS
100
AcDbCircle
10
-76.75
20
-17.999999999999972
30
-2.2204460492503131e-15
40
0.89499999999999247
210
-7.8225033897616614e-32
220
-2.7755575615628914e-17
230
1
100
AcDbArc
50
90
51
180
0
LINE
5
182
100
AcDbEntity
8
CUTOUTS
100
AcDbLine
10
-76.75
20
-17.104999999999979
30
4.4408920985006262e-15
11
-61.25
21
-17.104999999999979
31
4.4408920985006262e-15
0
ARC
5
183
100
AcDbEntity
8
CUTOUTS
100
AcDbCircle
10
-61.249999999999986
20
-17.999999999999972
30
-2.2204460492503131e-15
40
0.8949999999999747
210
-2.7544026020287504e-31
220
5.4668177660064307e-45
230
1
100
AcDbArc
50
0
51
90.000000000000924
0
LINE
5
184
100
AcDbEntity
8
CUTOUTS
100
AcDbLine
10
-60.355000000000004
20
-17.999999999999989
30
0
11
-60.355000000000004
21
-25.499999999999936
31
0
0
ARC
5
185
100
AcDbEntity
8
CUTOUTS
100
AcDbCircle
10
-61.25
20
-25.499999999999989
30
0
40
0.8949999999999747
210
-3.944304526105059e-31
220
7.7560273422296326e-45
230
1
100
AcDbArc
50
-90.000000000000924
51
0
0
LINE
5
186
100
AcDbEntity
8
CUTOUTS
100
AcDbLine
10
-61.250000000000014
20
-26.394999999999982
30
2.2204460492503131e-15
11
-76.750000000000014
21
-26.394999999999964
31
2.2204460492503131e-15
0
ARC
5
187
100
AcDbEntity
8
CUTOUTS
100
AcDbCircle
10
-76.750000000000014
20
-25.499999999999972
30
2.2204460492503131e-15
40
0.89499999999999247
210
0
220
-2.775557561562892e-17
230
1
100
AcDbArc
50
180
51
270
0
ARC
5
188
100
AcDbEntity
8
CUTOUTS
100
AcDbCircle
10
31.25
20
-29.999999999999929
30
2.2204460492503131e-15
40
0.89500000000001023
210
-5.5088052040572818e-31
220
1.0933635532011991e-44
230
1
100
AcDbArc
50
0
51
90
0
LINE
5
189
100
AcDbEntity
8
CUTOUTS
100
AcDbLine
10
16.249999999999982
20
-29.104999999999972
30
-2.2204460492503131e-15
11
31.25
21
-29.104999999999919
31
-2.2204460492503131e-15
0
ARC
5
18A
100
AcDbEntity
8
CUTOUTS
100
AcDbCircle
10
16.25
20
-29.999999999999964
30
2.2204460492503131e-15
40
0.89499999999999247
210
1.5645006779523323e-31
220
-2.7755575615628914e-17
230
1
100
AcDbArc
50
90.000000000001137
51
180
0
LINE
5
18B
100
AcDbEntity
8
CUTOUTS
100
AcDbLine
10
15.35499999999999
20
-45
30
0
11
15.355000000000008
21
-29.999999999999964
31
0
0
ARC
5
18C
100
AcDbEntity
8
CUTOUTS
100
AcDbCircle
10
16.249999999999982
20
-45
30
0
40
0.89499999999999247
210
5.0986165254259034e-33
220
-2.775557561562892e-17
230
1
100
AcDbArc
50
180
51
270
0
LINE
5
18D
100
AcDbEntity
8
CUTOUTS
100
AcDbLine
10
31.25
20
-45.894999999999953
30
4.4408920985006262e-15
11
16.249999999999982
21
-45.894999999999975
31
4.4408920985006262e-15
0
ARC
5
18E
100
AcDbEntity
8
CUTOUTS
100
AcDbCircle
10
31.25
20
-45.000000000000014
30
4.4408920985006262e-15
40
0.89499999999995694
210
0
220
-1.3877787807814183e-17
230
1
100
AcDbArc
50
-90
51
0
0
LINE
5
18F
100
AcDbEntity
8
CUTOUTS
100
AcDbLine
10
32.14500000000001
20
-29.999999999999947
30
0
11
32.144999999999939
21
-44.999999999999943
31
0
0
ARC
5
190
100
AcDbEntity
8
CUTOUTS
100
AcDbCircle
10
50.249999999999986
20
-29.999999999999964
30
2.2204460492503131e-15
40
0.89500000000004576
210
0
220
-0
230
1
100
AcDbArc
50
0
51
89.999999999995467
0
LINE
5
191
100
AcDbEntity
8
CUTOUTS
100
AcDbLine
10
35.249999999999986
20
-29.104999999999972
30
-2.2204460492503131e-15
11
50.250000000000057
21
-29.104999999999919
31
-2.2204460492503131e-15
0
ARC
5
192
100
AcDbEntity
8
CUTOUTS
100
AcDbCircle
10
35.24999999999995
20
-29.999999999999929
30
2.2204460492503131e-15
40
0.89499999999995694
210
0
220
-0
230
1
100
AcDbArc
50
89.99999999999774
51
180
0
LINE
5
193
100
AcDbEntity
8
CUTOUTS
100
AcDbLine
10
34.355000000000011
20
-45
30
0
11
34.354999999999976
21
-29.999999999999964
31
0
0
ARC
5
194
100
AcDbEntity
8
CUTOUTS
100
AcDbCircle
10
35.24999999999995
20
-45.000000000000014
30
4.4408920985006262e-15
40
0.89499999999993918
210
2.7544026020288594e-31
220
1.3877787807814454e-17
230
1
100
AcDbArc
50
180
51
270.00000000000222
0
LINE
5
195
100
AcDbEntity
8
CUTOUTS
100
AcDbLine
10
50.250000000000021
20
-45.894999999999953
30
4.4408920985006262e-15
11
35.249999999999986
21
-45.894999999999939
31
4.4408920985006254e-15
0
ARC
5
196
100
AcDbEntity
8
CUTOUTS
100
AcDbCircle
10
50.249999999999986
20
-44.999999999999986
30
4.4408920985006262e-15
40
0.89499999999999247
210
-7.8886090522101181e-31
220
-3.1313932163683326e-44
230
1
100
AcDbArc
50
-89.999999999997755
51
0
0
LINE
5
197
100
AcDbEntity
8
CUTOUTS
100
AcDbLine
10
51.145000000000032
20
-29.999999999999947
30
0
11
51.144999999999996
21
-44.999999999999943
31
0
0
LINE
5
198
100
AcDbEntity
8
CUTOUTS
100
AcDbLine
10
-99.60499999999999
20
-17.999999999999989
30
0
11
-99.60499999999999
21
-25.499999999999936
31
0
0
ARC
5
199
100
AcDbEntity
8
CUTOUTS
100
AcDbCircle
10
-100.5
20
-25.499999999999972
30
2.2204460492503131e-15
40
0.89499999999999247
210
-7.8225033897616658e-32
220
-2.7755575615628914e-17
230
1
100
AcDbArc
50
-90
51
0
0
LINE
5
19A
100
AcDbEntity
8
CUTOUTS
100
AcDbLine
10
-100.5
20
-26.394999999999982
30
2.2204460492503131e-15
11
-116.00000000000001
21
-26.394999999999964
31
2.2204460492503131e-15
0
ARC
5
19B
100
AcDbEntity
8
CUTOUTS
100
AcDbCircle
10
-116.00000000000001
20
-25.499999999999972
30
2.2204460492503131e-15
40
0.89500000000001023
210
0
220
0
230
1
100
AcDbArc
50
180
51
270
0
LINE
5
19C
100
AcDbEntity
8
CUTOUTS
100
AcDbLine
10
-116.89500000000002
20
-25.499999999999972
30
2.2204460492503131e-15
11
-116.89500000000002
21
-17.999999999999989
31
2.2204460492503131e-15
0
ARC
5
19D
100
AcDbEntity
8
CUTOUTS
100
AcDbCircle
10
-116.00000000000001
20
-17.999999999999972
30
-2.2204460492503131e-15
40
0.89499999999999247
210
-1.5645006779523323e-31
220
-2.7755575615628914e-17
230
1
100
AcDbArc
50
89.999999999999091
51
180
0
LINE
5
19E
100
AcDbEntity
8
CUTOUTS
100
AcDbLine
10
-116
20
-17.104999999999979
30
4.4408920985006262e-15
11
-100.5
21
-17.104999999999979
31
4.4408920985006262e-15
0
ARC
5
19F
100
AcDbEntity
8
CUTOUTS
100
AcDbCircle
10
-100.50000000000004
20
-18.000000000000007
30
-2.2204460492503131e-15
40
0.89500000000004576
210
2.7544026020285319e-31
220
1.3877787807814457e-17
230
1
100
AcDbArc
50
0
51
89.999999999999091
0
ARC
5
1A0
100
AcDbEntity
8
CUTOUTS
100
AcDbCircle
10
135.75
20
-67.999999999999986
30
2.2204460492503131e-15
40
0.8949999999999747
210
-5.5088052040575008e-31
220
1.0933635532012861e-44
230
1
100
AcDbArc
50
0
51
89.999999999998181
0
LINE
5
1A1
100
AcDbEntity
8
CUTOUTS
100
AcDbLine
10
106.24999999999997
20
-67.105000000000018
30
0
11
135.75000000000003
21
-67.105000000000018
31
-2.4259532032292696e-34
0
ARC
5
1A2
100
AcDbEntity
8
CUTOUTS
100
AcDbCircle
10
106.25
20
-68.000000000000043
30
4.4408920985006262e-15
40
0.895000000000028
210
-5.5088052040572827e-31
220
1.3877787807814734e-17
230
1
100
AcDbArc
50
90.000000000001805
51
180
0
LINE
5
1A3
100
AcDbEntity
8
CUTOUTS
100
AcDbLine
10
105.35499999999999
20
-83
30
0
11
105.35499999999999
21
-68
31
0
0
ARC
5
1A4
100
AcDbEntity
8
CUTOUTS
100
AcDbCircle
10
106.24999999999997
20
-83.000000000000028
30
2.2204460492503131e-15
40
0.8949999999999747
210
-2.7544026020287504e-31
220
3.5096970057761839e-45
230
1
100
AcDbArc
50
180
51
270.00000000000091
0
LINE
5
1A5
100
AcDbEntity
8
CUTOUTS
100
AcDbLine
10
135.74999999999994
20
-83.894999999999982
30
2.2204460492503131e-15
11
106.24999999999997
21
-83.894999999999982
31
2.2204460492503131e-15
0
ARC
5
1A6
100
AcDbEntity
8
CUTOUTS
100
AcDbCircle
10
135.74999999999994
20
-82.999999999999972
30
0
40
0.89500000000001023
210
-0
220
0
230
1
100
AcDbArc
50
-90
51
0
0
LINE
5
1A7
100
AcDbEntity
8
CUTOUTS
100
AcDbLine
10
136.64499999999998
20
-68
30
0
11
136.64499999999998
21
-82.999999999999986
31
0
0
LINE
5
1A8
100
AcDbEntity
8
CUTOUTS
100
AcDbLine
10
-119.35500000000002
20
-17.999999999999989
30
0
11
-119.35500000000002
21
-25.499999999999936
31
0
0
ARC
5
1A9
100
AcDbEntity
8
CUTOUTS
100
AcDbCircle
10
-120.25
20
-25.499999999999972
30
2.2204460492503131e-15
40
0.89499999999999247
210
-1.5645006779523323e-31
220
-2.7755575615628914e-17
230
1
100
AcDbArc
50
-90.000000000001833
51
0
0
LINE
5
1AA
100
AcDbEntity
8
CUTOUTS
100
AcDbLine
10
-120.25000000000003
20
-26.394999999999982
30
2.2204460492503131e-15
11
-135.75
21
-26.394999999999964
31
2.2204460492503131e-15
0
ARC
5
1AB
100
AcDbEntity
8
CUTOUTS
100
AcDbCircle
10
-135.75
20
-25.499999999999972
30
2.2204460492503131e-15
40
0.89499999999999247
210
0
220
-1.387778780781446e-17
230
1
100
AcDbArc
50
180
51
270
0
LINE
5
1AC
100
AcDbEntity
8
CUTOUTS
100
AcDbLine
10
-136.64500000000001
20
-25.499999999999972
30
2.2204460492503131e-15
11
-136.64499999999998
21
-17.999999999999989
31
2.2204460492503131e-15
0
ARC
5
1AD
100
AcDbEntity
8
CUTOUTS
100
AcDbCircle
10
-135.75
20
-17.999999999999972
30
-2.2204460492503131e-15
40
0.89499999999999247
210
-7.822503389761657e-32
220
-2.7755575615628914e-17
230
1
100
AcDbArc
50
90
51
180
0
LINE
5
1AE
100
AcDbEntity
8
CUTOUTS
100
AcDbLine
10
-135.75
20
-17.104999999999979
30
4.4408920985006262e-15
11
-120.25
21
-17.104999999999979
31
4.4408920985006262e-15
0
ARC
5
1AF
100
AcDbEntity
8
CUTOUTS
100
AcDbCircle
10
-120.25000000000003
20
-17.999999999999989
30
0
40
0.89500000000001023
210
-2.5493082627129332e-33
220
1.387778780781446e-17
230
1
100
AcDbArc
50
0
51
89.999999999998181
0
LINE
5
1B0
100
AcDbEntity
8
CUTOUTS
100
AcDbLine
10
97.250000000000014
20
-86.105000000000018
30
2.2204460492503131e-15
11
135.74999999999994
21
-86.105000000000018
31
2.2204460492503131e-15
0
ARC
5
1B1
100
AcDbEntity
8
CUTOUTS
100
AcDbCircle
10
135.74999999999994
20
-87.000000000000028
30
2.2204460492503131e-15
40
0.89500000000001023
210
2.7544026020286409e-31
220
1.957120760230169e-45
230
1
100
AcDbArc
50
0
51
90
0
LINE
5
1B2
100
AcDbEntity
8
CUTOUTS
100
AcDbLine
10
136.64499999999998
20
-87.000000000000028
30
4.4408920985006262e-15
11
136.64499999999998
21
-102.00000000000001
31
4.4408920985006262e-15
0
ARC
5
1B3
100
AcDbEntity
8
CUTOUTS
100
AcDbCircle
10
135.74999999999994
20
-102.00000000000001
30
2.2204460492503131e-15
40
0.89500000000001023
210
-0
220
1.3877787807814457e-17
230
1
100
AcDbArc
50
-90
51
0
0
LINE
5
1B4
100
AcDbEntity
8
CUTOUTS
100
AcDbLine
10
135.74999999999994
20
-102.89500000000002
30
4.4408920985006262e-15
11
97.249999999999943
21
-102.89500000000001
31
4.4408920985006262e-15
0
ARC
5
1B5
100
AcDbEntity
8
CUTOUTS
100
AcDbCircle
10
97.249999999999972
20
-102.00000000000003
30
2.2204460492503131e-15
40
0.8949999999999747
210
-2.7544026020287504e-31
220
5.4668177660064307e-45
230
1
100
AcDbArc
50
180
51
269.99999999999818
0
LINE
5
1B6
100
AcDbEntity
8
CUTOUTS
100
AcDbLine
10
96.355000000000004
20
-102.00000000000001
30
2.2204460492503131e-15
11
96.355000000000004
21
-87.000000000000028
31
2.2204460492503131e-15
0
ARC
5
1B7
100
AcDbEntity
8
CUTOUTS
100
AcDbCircle
10
97.250000000000014
20
-87.000000000000028
30
2.2204460492503131e-15
40
0.89500000000001023
210
0
220
-1.3877787807814457e-17
230
1
100
AcDbArc
50
90
51
180
0
ARC
5
1B8
100
AcDbEntity
8
CUTOUTS
100
AcDbCircle
10
-50.249999999999986
20
-48.500000000000014
30
0
40
0.89500000000001023
210
7.8886090522101181e-31
220
3.1458843561065413e-44
230
1
100
AcDbArc
50
90.000000000002288
51
180
0
LINE
5
1B9
100
AcDbEntity
8
CUTOUTS
100
AcDbLine
10
-51.14500000000001
20
-63.500000000000014
30
0
11
-51.144999999999996
21
-48.499999999999979
31
0
0
ARC
5
1BA
100
AcDbEntity
8
CUTOUTS
100
AcDbCircle
10
-50.250000000000021
20
-63.500000000000021
30
0
40
0.89499999999999247
210
-7.3126417372190824e-32
220
-2.775557561562892e-17
230
1
100
AcDbArc
50
180
51
270
0
LINE
5
1BB
100
AcDbEntity
8
CUTOUTS
100
AcDbLine
10
-35.250000000000021
20
-64.394999999999996
30
2.2204460492503131e-15
11
-50.250000000000021
21
-64.395000000000024
31
2.2204460492503139e-15
0
ARC
5
1BC
100
AcDbEntity
8
CUTOUTS
100
AcDbCircle
10
-35.250000000000021
20
-63.5
30
2.2204460492503131e-15
40
0.89499999999999247
210
-0
220
0
230
1
100
AcDbArc
50
-90
51
0
0
LINE
5
1BD
100
AcDbEntity
8
CUTOUTS
100
AcDbLine
10
-34.355000000000011
20
-48.499999999999979
30
0
11
-34.355000000000032
21
-63.499999999999979
31
0
0
ARC
5
1BE
100
AcDbEntity
8
CUTOUTS
100
AcDbCircle
10
-35.249999999999986
20
-48.499999999999943
30
0
40
0.8949999999999747
210
-7.8886090522101181e-31
220
3.1313932163683949e-44
230
1
100
AcDbArc
50
0
51
90.000000000002288
0
LINE
5
1BF
100
AcDbEntity
8
CUTOUTS
100
AcDbLine
10
-50.250000000000021
20
-47.60499999999999
30
0
11
-35.250000000000021
21
-47.604999999999947
31
0
0
LINE
5
1C0
100
AcDbEntity
8
CUTOUTS
100
AcDbLine
10
56.144999999999996
20
-87
30
0
11
56.145000000000032
21
-102
31
0
0
ARC
5
1C1
100
AcDbEntity
8
CUTOUTS
100
AcDbCircle
10
55.249999999999986
20
-102
30
2.2204460492503131e-15
40
0.89500000000004576
210
2.379803848153e-31
220
1.3877787807814457e-17
230
1
100
AcDbArc
50
270.00000000000222
51
360
0
LINE
5
1C2
100
AcDbEntity
8
CUTOUTS
100
AcDbLine
10
55.250000000000021
20
-102.89500000000002
30
4.4408920985006262e-15
11
40.250000000000021
21
-102.89500000000004
31
4.4408920985006262e-15
0
ARC
5
1C3
100
AcDbEntity
8
CUTOUTS
100
AcDbCircle
10
40.250000000000057
20
-102
30
4.4408920985006262e-15
40
0.89500000000004576
210
-5.5088052040570638e-31
220
-1.7953029543562069e-44
230
1
100
AcDbArc
50
180
51
269.99999999999818
0
LINE
5
1C4
100
AcDbEntity
8
CUTOUTS
100
AcDbLine
10
39.355000000000011
20
-102.00000000000003
30
2.2204460492503131e-15
11
39.355000000000011
21
-87.000000000000028
31
2.2204460492503131e-15
0
ARC
5
1C5
100
AcDbEntity
8
CUTOUTS
100
AcDbCircle
10
40.250000000000057
20
-87.000000000000028
30
0
40
0.895000000000028
210
-5.5088052040571732e-31
220
1.387778780781446e-17
230
1
100
AcDbArc
50
90.000000000002288
51
180
0
LINE
5
1C6
100
AcDbEntity
8
CUTOUTS
100
AcDbLine
10
40.250000000000021
20
-86.105000000000018
30
2.2204460492503131e-15
11
55.250000000000057
21
-86.105000000000018
31
2.2204460492503131e-15
0
ARC
5
1C7
100
AcDbEntity
8
CUTOUTS
100
AcDbCircle
10
55.250000000000021
20
-87
30
2.2204460492503131e-15
40
0.8949999999999747
210
-5.5088052040575008e-31
220
1.0933635532012861e-44
230
1
100
AcDbArc
50
0
51
89.99999999999774
0
LINE
5
1C8
100
AcDbEntity
8
CUTOUTS
100
AcDbLine
10
8.6449999999999783
20
-68.000000000000014
30
0
11
8.644999999999996
21
-83
31
0
0
ARC
5
1C9
100
AcDbEntity
8
CUTOUTS
100
AcDbCircle
10
7.7500000000000036
20
-83
30
0
40
0.89500000000001023
210
-0
220
0
230
1
100
AcDbArc
50
-90
51
0
0
LINE
5
1CA
100
AcDbEntity
8
CUTOUTS
100
AcDbLine
10
7.7500000000000036
20
-83.894999999999996
30
2.2204460492503131e-15
11
-7.2499999999999787
21
-83.89500000000001
31
2.2204460492503135e-15
0
ARC
5
1CB
100
AcDbEntity
8
CUTOUTS
100
AcDbCircle
10
-7.2499999999999964
20
-83.000000000000028
30
2.2204460492503131e-15
40
0.89500000000001023
210
-2.7544026020286409e-31
220
3.5096970057758267e-45
230
1
100
AcDbArc
50
180
51
270.00000000000114
0
LINE
5
1CC
100
AcDbEntity
8
CUTOUTS
100
AcDbLine
10
-8.1450000000000067
20
-83
30
0
11
-8.1449999999999889
21
-68
31
0
0
ARC
5
1CD
100
AcDbEntity
8
CUTOUTS
100
AcDbCircle
10
-7.2499999999999964
20
-68.000000000000014
30
0
40
0.89499999999999247
210
0
220
-2.7755575615628914e-17
230
1
100
AcDbArc
50
90
51
180
0
LINE
5
1CE
100
AcDbEntity
8
CUTOUTS
100
AcDbLine
10
-7.2499999999999964
20
-67.105000000000018
30
2.2204460492503131e-15
11
7.7500000000000213
21
-67.105000000000047
31
2.2204460492503131e-15
0
ARC
5
1CF
100
AcDbEntity
8
CUTOUTS
100
AcDbCircle
10
7.7500000000000036
20
-68.000000000000028
30
0
40
0.8949999999999747
210
1.9721522630525295e-31
220
1.9571207602302468e-45
230
1
100
AcDbArc
50
0
51
89.999999999998863
0
ARC
5
1D0
100
AcDbEntity
8
CUTOUTS
100
AcDbCircle
10
59.749999999999943
20
-48.5
30
0
40
0.89500000000004576
210
0
220
-0
230
1
100
AcDbArc
50
0
51
89.999999999995467
0
LINE
5
1D1
100
AcDbEntity
8
CUTOUTS
100
AcDbLine
10
44.749999999999979
20
-47.60499999999999
30
0
11
59.750000000000014
21
-47.604999999999933
31
0
0
ARC
5
1D2
100
AcDbEntity
8
CUTOUTS
100
AcDbCircle
10
44.749999999999979
20
-48.499999999999979
30
0
40
0.8949999999999747
210
0
220
-0
230
1
100
AcDbArc
50
90
51
180
0
LINE
5
1D3
100
AcDbEntity
8
CUTOUTS
100
AcDbLine
10
43.855000000000004
20
-63.500000000000014
30
0
11
43.855000000000004
21
-48.499999999999979
31
0
0
ARC
5
1D4
100
AcDbEntity
8
CUTOUTS
100
AcDbCircle
10
44.749999999999979
20
-63.500000000000028
30
2.2204460492503131e-15
40
0.8949999999999747
210
-2.7544026020287504e-31
220
5.4668177660064307e-45
230
1
100
AcDbArc
50
180
51
269.99999999999773
0
LINE
5
1D5
100
AcDbEntity
8
CUTOUTS
100
AcDbLine
10
59.749999999999979
20
-64.394999999999996
30
2.2204460492503131e-15
11
44.749999999999943
21
-64.39500000000001
31
2.2204460492503131e-15
0
ARC
5
1D6
100
AcDbEntity
8
CUTOUTS
100
AcDbCircle
10
59.749999999999943
20
-63.499999999999979
30
0
40
0.89500000000001023
210
7.8886090522101181e-31
220
3.1458843561065413e-44
230
1
100
AcDbArc
50
-89.999999999997755
51
0
0
LINE
5
1D7
100
AcDbEntity
8
CUTOUTS
100
AcDbLine
10
60.644999999999989
20
-48.499999999999979
30
0
11
60.644999999999953
21
-63.499999999999979
31
0
0
LINE
5
1D8
100
AcDbEntity
8
CUTOUTS
100
AcDbLine
10
98.644999999999996
20
-48.499999999999979
30
0
11
98.644999999999996
21
-63.499999999999986
31
0
0
ARC
5
1D9
100
AcDbEntity
8
CUTOUTS
100
AcDbCircle
10
97.750000000000028
20
-63.500000000000014
30
0
40
0.8949999999999747
210
-7.8886090522101181e-31
220
3.1169020766301239e-44
230
1
100
AcDbArc
50
-90.000000000002757
51
0
0
LINE
5
1DA
100
AcDbEntity
8
CUTOUTS
100
AcDbLine
10
97.749999999999986
20
-64.394999999999996
30
2.2204460492503131e-15
11
82.749999999999986
21
-64.394999999999968
31
2.2204460492503131e-15
0
ARC
5
1DB
100
AcDbEntity
8
CUTOUTS
100
AcDbCircle
10
82.749999999999915
20
-63.500000000000043
30
0
40
0.89499999999990365
210
-1.3371921173640928e-30
220
-1.387778780781446e-17
230
1
100
AcDbArc
50
180
51
270.00000000000449
0
LINE
5
1DC
100
AcDbEntity
8
CUTOUTS
100
AcDbLine
10
81.855000000000018
20
-63.500000000000014
30
0
11
81.854999999999976
21
-48.499999999999979
31
0
0
ARC
5
1DD
100
AcDbEntity
8
CUTOUTS
100
AcDbCircle
10
82.749999999999943
20
-48.499999999999957
30
2.2204460492503131e-15
40
0.89499999999995694
210
0
220
-0
230
1
100
AcDbArc
50
89.999999999997272
51
180
0
LINE
5
1DE
100
AcDbEntity
8
CUTOUTS
100
AcDbLine
10
82.749999999999986
20
-47.60499999999999
30
0
11
97.749999999999986
21
-47.604999999999933
31
0
0
ARC
5
1DF
100
AcDbEntity
8
CUTOUTS
100
AcDbCircle
10
97.749999999999986
20
-48.499999999999957
30
2.2204460492503131e-15
40
0.89500000000001023
210
-5.5088052040572818e-31
220
1.0933635532011991e-44
230
1
100
AcDbArc
50
0
51
90
0
LINE
5
1E0
100
AcDbEntity
8
CUTOUTS
100
AcDbLine
10
-38.855000000000018
20
-87
30
0
11
-38.855000000000004
21
-102
31
0
0
ARC
5
1E1
100
AcDbEntity
8
CUTOUTS
100
AcDbCircle
10
-39.750000000000014
20
-102
30
2.2204460492503131e-15
40
0.895000000000028
210
-0
220
1.3877787807814184e-17
230
1
100
AcDbArc
50
270
51
360
0
LINE
5
1E2
100
AcDbEntity
8
CUTOUTS
100
AcDbLine
10
-39.750000000000014
20
-102.89500000000002
30
4.4408920985006262e-15
11
-54.750000000000014
21
-102.89500000000002
31
4.4408920985006262e-15
0
ARC
5
1E3
100
AcDbEntity
8
CUTOUTS
100
AcDbCircle
10
-54.750000000000014
20
-102.00000000000003
30
4.4408920985006262e-15
40
0.89499999999999247
210
0
220
-2.775557561562892e-17
230
1
100
AcDbArc
50
180
51
270
0
LINE
5
1E4
100
AcDbEntity
8
CUTOUTS
100
AcDbLine
10
-55.64500000000001
20
-102.00000000000003
30
2.2204460492503131e-15
11
-55.64500000000001
21
-87.000000000000028
31
2.2204460492503131e-15
0
ARC
5
1E5
100
AcDbEntity
8
CUTOUTS
100
AcDbCircle
10
-54.750000000000014
20
-87
30
0
40
0.8949999999999747
210
0
220
1.3877787807814595e-17
230
1
100
AcDbArc
50
90
51
180
0
LINE
5
1E6
100
AcDbEntity
8
CUTOUTS
100
AcDbLine
10
-54.750000000000014
20
-86.105000000000018
30
2.2204460492503131e-15
11
-39.75
21
-86.105000000000004
31
2.2204460492503131e-15
0
ARC
5
1E7
100
AcDbEntity
8
CUTOUTS
100
AcDbCircle
10
-39.750000000000014
20
-87
30
0
40
0.89499999999999247
210
2.0231384283067879e-31
220
-2.775557561562892e-17
230
1
100
AcDbArc
50
0
51
89.999999999999091
0
ARC
5
1E8
100
AcDbEntity
8
CUTOUTS
100
AcDbCircle
10
-11.250000000000018
20
-68.000000000000043
30
4.4408920985006262e-15
40
0.89499999999999247
210
1.3772013010143481e-30
220
-2.775557561562892e-17
230
1
100
AcDbArc
50
0
51
89.999999999998863
0
LINE
5
1E9
100
AcDbEntity
8
CUTOUTS
100
AcDbLine
10
-26.25
20
-67.105000000000018
30
2.2204460492503131e-15
11
-11.25
21
-67.105000000000047
31
2.2204460492503131e-15
0
ARC
5
1EA
100
AcDbEntity
8
CUTOUTS
100
AcDbCircle
10
-26.25
20
-68
30
0
40
0.89499999999998359
210
0
220
1.3877787807814457e-17
230
1
100
AcDbArc
50
90
51
180
0
LINE
5
1EB
100
AcDbEntity
8
CUTOUTS
100
AcDbLine
10
-27.14500000000001
20
-83
30
0
11
-27.144999999999975
21
-68
31
0
0
ARC
5
1EC
100
AcDbEntity
8
CUTOUTS
100
AcDbCircle
10
-26.250000000000018
20
-83.000000000000028
30
2.2204460492503131e-15
40
0.89499999999999247
210
-5.5088052040573922e-31
220
-2.775557561562892e-17
230
1
100
AcDbArc
50
180
51
270.00000000000114
0
LINE
5
1ED
100
AcDbEntity
8
CUTOUTS
100
AcDbLine
10
-11.25
20
-83.894999999999996
30
2.2204460492503131e-15
11
-26.25
21
-83.89500000000001
31
2.2204460492503131e-15
0
ARC
5
1EE
100
AcDbEntity
8
CUTOUTS
100
AcDbCircle
10
-11.25
20
-83
30
0
40
0.89500000000001023
210
-0
220
0
230
1
100
AcDbArc
50
-90
51
0
0
LINE
5
1EF
100
AcDbEntity
8
CUTOUTS
100
AcDbLine
10
-10.355000000000025
20
-68.000000000000014
30
0
11
-10.35499999999999
21
-83
31
0
0
ARC
5
1F0
100
AcDbEntity
8
CUTOUTS
100
AcDbCircle
10
-64.25
20
-68.000000000000014
30
0
40
0.89499999999999247
210
0
220
-2.7755575615628914e-17
230
1
100
AcDbArc
50
90
51
180
0
LINE
5
1F1
100
AcDbEntity
8
CUTOUTS
100
AcDbLine
10
-65.14500000000001
20
-83
30
0
11
-65.144999999999996
21
-68
31
0
0
ARC
5
1F2
100
AcDbEntity
8
CUTOUTS
100
AcDbCircle
10
-64.250000000000014
20
-83.000000000000043
30
2.2204460492503131e-15
40
0.89499999999999247
210
-8.7581154020301067e-47
220
-2.775557561562892e-17
230
1
100
AcDbArc
50
180
51
270.00000000000091
0
LINE
5
1F3
100
AcDbEntity
8
CUTOUTS
100
AcDbLine
10
-49.250000000000007
20
-83.894999999999996
30
2.2204460492503131e-15
11
-64.25
21
-83.89500000000001
31
2.2204460492503127e-15
0
ARC
5
1F4
100
AcDbEntity
8
CUTOUTS
100
AcDbCircle
10
-49.250000000000007
20
-83
30
0
40
0.89500000000001023
210
-0
220
0
230
1
100
AcDbArc
50
-90
51
0
0
LINE
5
1F5
100
AcDbEntity
8
CUTOUTS
100
AcDbLine
10
-48.355000000000018
20
-68.000000000000014
30
0
11
-48.354999999999997
21
-83
31
0
0
ARC
5
1F6
100
AcDbEntity
8
CUTOUTS
100
AcDbCircle
10
-49.250000000000007
20
-68
30
0
40
0.89499999999999247
210
-7.3126417372190824e-32
220
-2.775557561562892e-17
230
1
100
AcDbArc
50
0
51
90
0
LINE
5
1F7
100
AcDbEntity
8
CUTOUTS
100
AcDbLine
10
-64.25
20
-67.105000000000018
30
2.2204460492503131e-15
11
-49.250000000000007
21
-67.105000000000018
31
2.2204460492503131e-15
0
ARC
5
1F8
100
AcDbEntity
8
CUTOUTS
100
AcDbCircle
10
-58.750000000000014
20
-87.000000000000014
30
2.2204460492503131e-15
40
0.89499999999999247
210
5.5088052040573922e-31
220
-2.775557561562892e-17
230
1
100
AcDbArc
50
0
51
89.999999999999091
0
LINE
5
1F9
100
AcDbEntity
8
CUTOUTS
100
AcDbLine
10
-73.750000000000014
20
-86.105000000000018
30
2.2204460492503131e-15
11
-58.75
21
-86.105000000000018
31
2.2204460492503131e-15
0
ARC
5
1FA
100
AcDbEntity
8
CUTOUTS
100
AcDbCircle
10
-73.750000000000014
20
-87
30
0
40
0.89499999999999247
210
0
220
-2.7755575615628914e-17
230
1
100
AcDbArc
50
90
51
180
0
LINE
5
1FB
100
AcDbEntity
8
CUTOUTS
100
AcDbLine
10
-74.64500000000001
20
-102.00000000000003
30
2.2204460492503131e-15
11
-74.64500000000001
21
-87.000000000000028
31
2.2204460492503131e-15
0
ARC
5
1FC
100
AcDbEntity
8
CUTOUTS
100
AcDbCircle
10
-73.750000000000014
20
-102.00000000000003
30
2.2204460492503131e-15
40
0.89499999999999247
210
0
220
-2.775557561562892e-17
230
1
100
AcDbArc
50
180
51
270
0
LINE
5
1FD
100
AcDbEntity
8
CUTOUTS
100
AcDbLine
10
-58.750000000000014
20
-102.89500000000002
30
4.4408920985006262e-15
11
-73.750000000000028
21
-102.89500000000002
31
4.4408920985006262e-15
0
ARC
5
1FE
100
AcDbEntity
8
CUTOUTS
100
AcDbCircle
10
-58.750000000000014
20
-102
30
2.2204460492503131e-15
40
0.895000000000028
210
-0
220
1.3877787807814184e-17
230
1
100
AcDbArc
50
270
51
360
0
LINE
5
1FF
100
AcDbEntity
8
CUTOUTS
100
AcDbLine
10
-57.855000000000025
20
-87
30
0
11
-57.85499999999999
21
-102
31
0
0
ARC
5
200
100
AcDbEntity
8
CUTOUTS
100
AcDbCircle
10
-78.750000000000014
20
-123.00000000000003
30
4.4408920985006262e-15
40
0.89499999999999247
210
0
220
-2.775557561562892e-17
230
1
100
AcDbArc
50
180
51
270
0
LINE
5
201
100
AcDbEntity
8
CUTOUTS
100
AcDbLine
10
-58.749999999999943
20
-123.895
30
4.4408920985006262e-15
11
-78.750000000000014
21
-123.89500000000001
31
4.4408920985006262e-15
0
ARC
5
202
100
AcDbEntity
8
CUTOUTS
100
AcDbCircle
10
-58.749999999999943
20
-123
30
4.4408920985006262e-15
40
0.89500000000001023
210
-0
220
0
230
1
100
AcDbArc
50
270
51
360
0
LINE
5
203
100
AcDbEntity
8
CUTOUTS
100
AcDbLine
10
-57.855000000000004
20
-106.00000000000001
30
0
11
-57.854999999999933
21
-123.00000000000004
31
0
0
ARC
5
204
100
AcDbEntity
8
CUTOUTS
100
AcDbCircle
10
-58.75
20
-106
30
0
40
0.89499999999999247
210
-3.4856667757506043e-31
220
-2.775557561562892e-17
230
1
100
AcDbArc
50
0
51
90
0
LINE
5
205
100
AcDbEntity
8
CUTOUTS
100
AcDbLine
10
-78.749999999999062
20
-105.105
30
2.2204460492503131e-15
11
-58.75
21
-105.105
31
2.2204460492503131e-15
0
ARC
5
206
100
AcDbEntity
8
CUTOUTS
100
AcDbCircle
10
-78.749999999999062
20
-106.00000000000068
30
4.4408920985006262e-15
40
0.89500000000068525
210
0
220
-0
230
1
100
AcDbArc
50
90
51
180
0
LINE
5
207
100
AcDbEntity
8
CUTOUTS
100
AcDbLine
10
-79.64500000000001
20
-123.00000000000003
30
4.4408920985006262e-15
11
-79.64499999999974
21
-106.00000000000071
31
4.4408920985006262e-15
0
LINE
5
208
100
AcDbEntity
8
CUTOUTS
100
AcDbLine
10
-97.75
20
-105.10485795111988
30
2.2204460492503131e-15
11
-82.750000000000028
21
-105.10485795111988
31
2.2204460492503131e-15
0
ARC
5
209
100
AcDbEntity
8
CUTOUTS
100
AcDbCircle
10
-82.75
20
-105.99985795111988
30
0
40
0.89499999999999247
210
2.0231384283067879e-31
220
-2.775557561562892e-17
230
1
100
AcDbArc
50
0
51
90
0
LINE
5
20A
100
AcDbEntity
8
CUTOUTS
100
AcDbLine
10
-81.855000000000018
20
-105.99985795111988
30
2.2204460492503131e-15
11
-81.855000000000018
21
-122.99985795111986
31
2.2204460492503131e-15
0
ARC
5
20B
100
AcDbEntity
8
CUTOUTS
100
AcDbCircle
10
-82.75
20
-122.99985795111988
30
4.4408920985006262e-15
40
0.89499999999999247
210
-1.3772013010143448e-31
220
-1.3877787807814731e-17
230
1
100
AcDbArc
50
-90
51
0
0
LINE
5
20C
100
AcDbEntity
8
CUTOUTS
100
AcDbLine
10
-82.750000000000028
20
-123.89485795111987
30
0
11
-97.750000000000028
21
-123.89485795111987
31
0
0
ARC
5
20D
100
AcDbEntity
8
CUTOUTS
100
AcDbCircle
10
-97.750000000000028
20
-122.99985795111988
30
2.2204460492503131e-15
40
0.89499999999999247
210
-8.2632078060860874e-31
220
-2.775557561562892e-17
230
1
100
AcDbArc
50
180
51
270
0
LINE
5
20E
100
AcDbEntity
8
CUTOUTS
100
AcDbLine
10
-98.644999999999996
20
-122.99985795111986
30
4.4408920985006262e-15
11
-98.644999999999996
21
-105.99985795111985
31
4.4408920985006262e-15
0
ARC
5
20F
100
AcDbEntity
8
CUTOUTS
100
AcDbCircle
10
-97.75
20
-105.99985795111988
30
2.2204460492503131e-15
40
0.89499999999999247
210
0
220
-0
230
1
100
AcDbArc
50
90
51
180
0
ARC
5
210
100
AcDbEntity
8
CUTOUTS
100
AcDbCircle
10
-101.75
20
-122.99985795111988
30
4.4408920985006262e-15
40
0.89499999999999247
210
1.3772013010143378e-31
220
1.3877787807814731e-17
230
1
100
AcDbArc
50
-90
51
0
0
LINE
5
211
100
AcDbEntity
8
CUTOUTS
100
AcDbLine
10
-100.85500000000002
20
-105.99985795111988
30
2.2204460492503131e-15
11
-100.85499999999999
21
-122.99985795111986
31
2.2204460492503131e-15
0
ARC
5
212
100
AcDbEntity
8
CUTOUTS
100
AcDbCircle
10
-101.75
20
-105.99985795111988
30
0
40
0.89499999999999247
210
2.0231384283067879e-31
220
-2.775557561562892e-17
230
1
100
AcDbArc
50
0
51
90.000000000001805
0
LINE
5
213
100
AcDbEntity
8
CUTOUTS
100
AcDbLine
10
-116.75
20
-105.10485795111987
30
2.2204460492503131e-15
11
-101.75
21
-105.10485795111987
31
2.2204460492503131e-15
0
ARC
5
214
100
AcDbEntity
8
CUTOUTS
100
AcDbCircle
10
-116.75
20
-105.99985795111988
30
2.2204460492503131e-15
40
0.89500000000001023
210
-6.8860065050716384e-32
220
1.3877787807814457e-17
230
1
100
AcDbArc
50
90
51
180
0
LINE
5
215
100
AcDbEntity
8
CUTOUTS
100
AcDbLine
10
-117.64500000000001
20
-122.99985795111986
30
4.4408920985006262e-15
11
-117.64500000000001
21
-105.99985795111985
31
4.4408920985006262e-15
0
ARC
5
216
100
AcDbEntity
8
CUTOUTS
100
AcDbCircle
10
-116.75
20
-122.99985795111986
30
4.4408920985006262e-15
40
0.89500000000001023
210
2.7544026020286414e-31
220
1.387778780781446e-17
230
1
100
AcDbArc
50
180
51
270
0
LINE
5
217
100
AcDbEntity
8
CUTOUTS
100
AcDbLine
10
-101.75
20
-123.89485795111987
30
2.2204460492503131e-15
11
-116.75
21
-123.89485795111987
31
2.2204460492503131e-15
0
ARC
5
218
100
AcDbEntity
8
CUTOUTS
100
AcDbCircle
10
-135.75
20
-105.99985795111988
30
2.2204460492503131e-15
40
0.89500000000001023
210
-2.4651903288156619e-32
220
0
230
1
100
AcDbArc
50
90
51
180
0
LINE
5
219
100
AcDbEntity
8
CUTOUTS
100
AcDbLine
10
-136.64500000000001
20
-122.99985795111986
30
4.4408920985006262e-15
11
-136.64500000000001
21
-105.99985795111985
31
4.4408920985006262e-15
0
ARC
5
21A
100
AcDbEntity
8
CUTOUTS
100
AcDbCircle
10
-135.75
20
-122.99985795111988
30
2.2204460492503131e-15
40
0.89499999999999247
210
2.7544026020286952e-31
220
-1.387778780781446e-17
230
1
100
AcDbArc
50
180
51
270
0
LINE
5
21B
100
AcDbEntity
8
CUTOUTS
100
AcDbLine
10
-120.75000000000003
20
-123.89485795111987
30
2.2204460492503131e-15
11
-135.75000000000003
21
-123.89485795111987
31
2.2204460492503131e-15
0
ARC
5
21C
100
AcDbEntity
8
CUTOUTS
100
AcDbCircle
10
-120.75000000000003
20
-122.99985795111986
30
2.2204460492503131e-15
40
0.89500000000001023
210
9.8607613152626498e-32
220
0
230
1
100
AcDbArc
50
-90
51
0
0
LINE
5
21D
100
AcDbEntity
8
CUTOUTS
100
AcDbLine
10
-119.85500000000002
20
-105.99985795111988
30
2.2204460492503131e-15
11
-119.85500000000002
21
-122.99985795111986
31
2.2204460492503131e-15
0
ARC
5
21E
100
AcDbEntity
8
CUTOUTS
100
AcDbCircle
10
-120.75000000000003
20
-105.99985795111988
30
2.2204460492503131e-15
40
0.89500000000001023
210
0
220
-0
230
1
100
AcDbArc
50
0
51
90
0
LINE
5
21F
100
AcDbEntity
8
CUTOUTS
100
AcDbLine
10
-135.75
20
-105.10485795111987
30
2.2204460492503131e-15
11
-120.75000000000003
21
-105.10485795111987
31
2.2204460492503131e-15
0
LINE
5
220
100
AcDbEntity
8
CUTOUTS
100
AcDbLine
10
3.644999999999996
20
-48.499999999999979
30
0
11
3.6449999999999783
21
-63.499999999999979
31
0
0
ARC
5
221
100
AcDbEntity
8
CUTOUTS
100
AcDbCircle
10
2.7499999999999858
20
-63.5
30
2.2204460492503131e-15
40
0.89499999999999247
210
-0
220
0
230
1
100
AcDbArc
50
-90
51
0
0
LINE
5
222
100
AcDbEntity
8
CUTOUTS
100
AcDbLine
10
2.7499999999999858
20
-64.394999999999996
30
2.2204460492503131e-15
11
-12.250000000000014
21
-64.395000000000024
31
2.2204460492503139e-15
0
ARC
5
223
100
AcDbEntity
8
CUTOUTS
100
AcDbCircle
10
-12.250000000000014
20
-63.500000000000021
30
0
40
0.89499999999999247
210
-7.3126417372190824e-32
220
-2.775557561562892e-17
230
1
100
AcDbArc
50
180
51
270
0
LINE
5
224
100
AcDbEntity
8
CUTOUTS
100
AcDbLine
10
-13.145000000000007
20
-63.500000000000014
30
0
11
-13.144999999999989
21
-48.499999999999979
31
0
0
ARC
5
225
100
AcDbEntity
8
CUTOUTS
100
AcDbCircle
10
-12.249999999999979
20
-48.500000000000014
30
0
40
0.89500000000001023
210
7.8886090522101181e-31
220
3.1458843561065413e-44
230
1
100
AcDbArc
50
90.000000000002288
51
180
0
LINE
5
226
100
AcDbEntity
8
CUTOUTS
100
AcDbLine
10
-12.250000000000014
20
-47.60499999999999
30
0
11
2.7499999999999858
21
-47.604999999999947
31
0
0
ARC
5
227
100
AcDbEntity
8
CUTOUTS
100
AcDbCircle
10
2.7500000000000213
20
-48.499999999999943
30
0
40
0.8949999999999747
210
-7.8886090522101181e-31
220
3.1313932163683949e-44
230
1
100
AcDbArc
50
0
51
90.000000000002288
0
ARC
5
228
100
AcDbEntity
8
CUTOUTS
100
AcDbCircle
10
33.749999999999964
20
-123.00000000000006
30
2.2204460492503131e-15
40
0.89499999999999247
210
5.5088052040574596e-31
220
1.3877787807814731e-17
230
1
100
AcDbArc
50
269.99999999999773
51
360
0
LINE
5
229
100
AcDbEntity
8
CUTOUTS
100
AcDbLine
10
34.644999999999939
20
-106.00000000000007
30
0
11
34.644999999999975
21
-123.00000000000006
31
0
0
ARC
5
22A
100
AcDbEntity
8
CUTOUTS
100
AcDbCircle
10
33.749999999999929
20
-106.00000000000007
30
0
40
0.89500000000001023
210
9.8607613152626476e-32
220
4.8928019005754225e-46
230
1
100
AcDbArc
50
0
51
90
0
LINE
5
22B
100
AcDbEntity
8
CUTOUTS
100
AcDbLine
10
-54.750000000000071
20
-105.10500000000006
30
2.2204460492503131e-15
11
33.749999999999929
21
-105.10500000000006
31
2.2204460492503131e-15
0
ARC
5
22C
100
AcDbEntity
8
CUTOUTS
100
AcDbCircle
10
-54.75000000000005
20
-106.00000000000009
30
2.2204460492503131e-15
40
0.895000000000028
210
-2.7544026020285862e-31
220
1.3877787807814457e-17
230
1
100
AcDbArc
50
90.000000000001378
51
180
0
LINE
5
22D
100
AcDbEntity
8
CUTOUTS
100
AcDbLine
10
-55.645000000000081
20
-123.00000000000003
30
4.4408920985006262e-15
11
-55.645000000000081
21
-106.00000000000006
31
4.4408920985006262e-15
0
ARC
5
22E
100
AcDbEntity
8
CUTOUTS
100
AcDbCircle
10
-54.75000000000005
20
-123
30
2.2204460492503131e-15
40
0.895000000000028
210
-2.7544026020285871e-31
220
1.387778780781446e-17
230
1
100
AcDbArc
50
180
51
270
0
LINE
5
22F
100
AcDbEntity
8
CUTOUTS
100
AcDbLine
10
33.749999999999929
20
-123.89500000000005
30
2.2204460492503131e-15
11
-54.75000000000005
21
-123.89500000000005
31
2.2204460492503131e-15
0
ARC
5
230
100
AcDbEntity
8
CUTOUTS
100
AcDbCircle
10
-20.750000000000011
20
-87.000000000000014
30
2.2204460492503131e-15
40
0.89499999999999247
210
5.5088052040573922e-31
220
-2.775557561562892e-17
230
1
100
AcDbArc
50
0
51
89.999999999998863
0
LINE
5
231
100
AcDbEntity
8
CUTOUTS
100
AcDbLine
10
-35.750000000000014
20
-86.105000000000018
30
2.2204460492503131e-15
11
-20.749999999999993
21
-86.105000000000018
31
2.2204460492503131e-15
0
ARC
5
232
100
AcDbEntity
8
CUTOUTS
100
AcDbCircle
10
-35.750000000000014
20
-87
30
0
40
0.89499999999999247
210
0
220
-2.7755575615628914e-17
230
1
100
AcDbArc
50
90
51
180
0
LINE
5
233
100
AcDbEntity
8
CUTOUTS
100
AcDbLine
10
-36.645000000000003
20
-102.00000000000003
30
2.2204460492503131e-15
11
-36.645000000000003
21
-87.000000000000028
31
2.2204460492503131e-15
0
ARC
5
234
100
AcDbEntity
8
CUTOUTS
100
AcDbCircle
10
-35.750000000000014
20
-102.00000000000003
30
2.2204460492503131e-15
40
0.89499999999999247
210
0
220
-2.775557561562892e-17
230
1
100
AcDbArc
50
180
51
270
0
LINE
5
235
100
AcDbEntity
8
CUTOUTS
100
AcDbLine
10
-20.750000000000011
20
-102.89500000000002
30
4.4408920985006262e-15
11
-35.750000000000014
21
-102.89500000000002
31
4.4408920985006262e-15
0
ARC
5
236
100
AcDbEntity
8
CUTOUTS
100
AcDbCircle
10
-20.750000000000011
20
-102
30
2.2204460492503131e-15
40
0.895000000000028
210
-0
220
1.3877787807814184e-17
230
1
100
AcDbArc
50
270
51
360
0
LINE
5
237
100
AcDbEntity
8
CUTOUTS
100
AcDbLine
10
-19.855000000000018
20
-87
30
0
11
-19.854999999999983
21
-102
31
0
0
ARC
5
238
100
AcDbEntity
8
CUTOUTS
100
AcDbCircle
10
-30.249999999999986
20
-83
30
0
40
0.89500000000001023
210
-0
220
0
230
1
100
AcDbArc
50
-90
51
0
0
LINE
5
239
100
AcDbEntity
8
CUTOUTS
100
AcDbLine
10
-29.355000000000011
20
-68.000000000000014
30
0
11
-29.354999999999976
21
-83
31
0
0
ARC
5
23A
100
AcDbEntity
8
CUTOUTS
100
AcDbCircle
10
-30.250000000000004
20
-68.000000000000043
30
4.4408920985006262e-15
40
0.89499999999999247
210
1.3772013010143481e-30
220
-2.775557561562892e-17
230
1
100
AcDbArc
50
0
51
89.999999999998863
0
LINE
5
23B
100
AcDbEntity
8
CUTOUTS
100
AcDbLine
10
-45.249999999999986
20
-67.105000000000018
30
2.2204460492503131e-15
11
-30.249999999999986
21
-67.105000000000047
31
2.2204460492503131e-15
0
ARC
5
23C
100
AcDbEntity
8
CUTOUTS
100
AcDbCircle
10
-45.249999999999986
20
-68
30
0
40
0.89499999999998359
210
0
220
1.3877787807814457e-17
230
1
100
AcDbArc
50
90
51
180
0
LINE
5
23D
100
AcDbEntity
8
CUTOUTS
100
AcDbLine
10
-46.144999999999996
20
-83
30
0
11
-46.14499999999996
21
-68
31
0
0
ARC
5
23E
100
AcDbEntity
8
CUTOUTS
100
AcDbCircle
10
-45.25
20
-83.000000000000028
30
2.2204460492503131e-15
40
0.89499999999999247
210
-5.5088052040573922e-31
220
-2.775557561562892e-17
230
1
100
AcDbArc
50
180
51
270.00000000000091
0
LINE
5
23F
100
AcDbEntity
8
CUTOUTS
100
AcDbLine
10
-30.249999999999986
20
-83.894999999999996
30
2.2204460492503131e-15
11
-45.249999999999986
21
-83.89500000000001
31
2.2204460492503131e-15
0
ARC
5
240
100
AcDbEntity
8
CUTOUTS
100
AcDbCircle
10
-54.249999999999986
20
-48.499999999999957
30
2.2204460492503131e-15
40
0.8949999999999747
210
-5.5088052040575008e-31
220
1.0933635532012861e-44
230
1
100
AcDbArc
50
0
51
90.000000000001378
0
LINE
5
241
100
AcDbEntity
8
CUTOUTS
100
AcDbLine
10
-69.25
20
-47.60499999999999
30
0
11
-54.250000000000007
21
-47.604999999999968
31
0
0
ARC
5
242
100
AcDbEntity
8
CUTOUTS
100
AcDbCircle
10
-69.249999999999986
20
-48.5
30
0
40
0.89499999999999247
210
1.6151816858296209e-30
220
-2.7755575615628914e-17
230
1
100
AcDbArc
50
90.000000000000924
51
180
0
LINE
5
243
100
AcDbEntity
8
CUTOUTS
100
AcDbLine
10
-70.14500000000001
20
-63.500000000000014
30
0
11
-70.144999999999968
21
-48.499999999999979
31
0
0
ARC
5
244
100
AcDbEntity
8
CUTOUTS
100
AcDbCircle
10
-69.25
20
-63.5
30
2.2204460492503131e-15
40
0.89500000000000135
210
5.508805204057337e-31
220
1.0933635532012209e-44
230
1
100
AcDbArc
50
180
51
270
0
LINE
5
245
100
AcDbEntity
8
CUTOUTS
100
AcDbLine
10
-54.250000000000007
20
-64.394999999999996
30
2.2204460492503131e-15
11
-69.25
21
-64.39500000000001
31
2.2204460492503131e-15
0
ARC
5
246
100
AcDbEntity
8
CUTOUTS
100
AcDbCircle
10
-54.250000000000007
20
-63.5
30
2.2204460492503131e-15
40
0.89499999999999247
210
-0
220
0
230
1
100
AcDbArc
50
-90
51
0
0
LINE
5
247
100
AcDbEntity
8
CUTOUTS
100
AcDbLine
10
-53.355000000000018
20
-48.499999999999979
30
0
11
-53.355000000000018
21
-63.499999999999979
31
0
0
ARC
5
248
100
AcDbEntity
8
CUTOUTS
100
AcDbCircle
10
-31.25
20
-48.5
30
0
40
0.89499999999999247
210
1.5645006779523323e-31
220
-2.7755575615628914e-17
230
1
100
AcDbArc
50
90.000000000001137
51
180
0
LINE
5
249
100
AcDbEntity
8
CUTOUTS
100
AcDbLine
10
-32.14500000000001
20
-63.500000000000014
30
0
11
-32.144999999999996
21
-48.499999999999979
31
0
0
ARC
5
24A
100
AcDbEntity
8
CUTOUTS
100
AcDbCircle
10
-31.250000000000018
20
-63.500000000000007
30
4.4408920985006262e-15
40
0.89499999999999247
210
2.7544026020286961e-31
220
-2.775557561562892e-17
230
1
100
AcDbArc
50
180
51
269.99999999999886
0
LINE
5
24B
100
AcDbEntity
8
CUTOUTS
100
AcDbLine
10
-16.250000000000018
20
-64.394999999999996
30
2.2204460492503131e-15
11
-31.250000000000036
21
-64.39500000000001
31
2.2204460492503131e-15
0
ARC
5
24C
100
AcDbEntity
8
CUTOUTS
100
AcDbCircle
10
-16.250000000000018
20
-63.5
30
2.2204460492503131e-15
40
0.89499999999999247
210
-0
220
0
230
1
100
AcDbArc
50
-90
51
0
0
LINE
5
24D
100
AcDbEntity
8
CUTOUTS
100
AcDbLine
10
-15.355000000000008
20
-48.499999999999979
30
0
11
-15.355000000000025
21
-63.499999999999979
31
0
0
ARC
5
24E
100
AcDbEntity
8
CUTOUTS
100
AcDbCircle
10
-16.25
20
-48.499999999999943
30
0
40
0.89499999999999247
210
-3.078015190650408e-31
220
-2.775557561562892e-17
230
1
100
AcDbArc
50
0
51
90.000000000001137
0
LINE
5
24F
100
AcDbEntity
8
CUTOUTS
100
AcDbLine
10
-31.250000000000018
20
-47.60499999999999
30
0
11
-16.250000000000018
21
-47.604999999999933
31
0
0
LINE
5
250
100
AcDbEntity
8
CUTOUTS
100
AcDbLine
10
22.644999999999982
20
-48.499999999999979
30
0
11
22.644999999999982
21
-63.499999999999986
31
0
0
ARC
5
251
100
AcDbEntity
8
CUTOUTS
100
AcDbCircle
10
21.750000000000007
20
-63.500000000000014
30
0
40
0.8949999999999747
210
-7.8886090522101181e-31
220
3.1169020766301239e-44
230
1
100
AcDbArc
50
-90.000000000002288
51
0
0
LINE
5
252
100
AcDbEntity
8
CUTOUTS
100
AcDbLine
10
21.749999999999972
20
-64.394999999999996
30
2.2204460492503131e-15
11
6.7499999999999716
21
-64.39500000000001
31
2.2204460492503131e-15
0
ARC
5
253
100
AcDbEntity
8
CUTOUTS
100
AcDbCircle
10
6.7499999999999893
20
-63.500000000000007
30
4.4408920985006262e-15
40
0.89499999999999247
210
2.7544026020286961e-31
220
-2.775557561562892e-17
230
1
100
AcDbArc
50
180
51
269.99999999999886
0
LINE
5
254
100
AcDbEntity
8
CUTOUTS
100
AcDbLine
10
5.8549999999999969
20
-63.500000000000014
30
0
11
5.8550000000000146
21
-48.499999999999979
31
0
0
ARC
5
255
100
AcDbEntity
8
CUTOUTS
100
AcDbCircle
10
6.7500000000000071
20
-48.5
30
0
40
0.89499999999999247
210
1.5645006779523323e-31
220
-2.7755575615628914e-17
230
1
100
AcDbArc
50
90.000000000001137
51
180
0
LINE
5
256
100
AcDbEntity
8
CUTOUTS
100
AcDbLine
10
6.7499999999999893
20
-47.60499999999999
30
0
11
21.749999999999972
21
-47.604999999999933
31
0
0
ARC
5
257
100
AcDbEntity
8
CUTOUTS
100
AcDbCircle
10
21.749999999999972
20
-48.499999999999957
30
2.2204460492503131e-15
40
0.89500000000001023
210
-5.5088052040572818e-31
220
1.0933635532011991e-44
230
1
100
AcDbArc
50
0
51
90
0
ARC
5
258
100
AcDbEntity
8
CUTOUTS
100
AcDbCircle
10
-16.750000000000007
20
-87
30
0
40
0.8949999999999747
210
0
220
1.3877787807814595e-17
230
1
100
AcDbArc
50
90
51
180
0
LINE
5
259
100
AcDbEntity
8
CUTOUTS
100
AcDbLine
10
-17.645
20
-102.00000000000003
30
2.2204460492503131e-15
11
-17.645
21
-87.000000000000028
31
2.2204460492503131e-15
0
ARC
5
25A
100
AcDbEntity
8
CUTOUTS
100
AcDbCircle
10
-16.750000000000007
20
-102.00000000000003
30
4.4408920985006262e-15
40
0.89499999999999247
210
0
220
-2.775557561562892e-17
230
1
100
AcDbArc
50
180
51
270
0
LINE
5
25B
100
AcDbEntity
8
CUTOUTS
100
AcDbLine
10
-1.7500000000000071
20
-102.89500000000002
30
4.4408920985006262e-15
11
-16.750000000000007
21
-102.89500000000002
31
4.4408920985006262e-15
0
ARC
5
25C
100
AcDbEntity
8
CUTOUTS
100
AcDbCircle
10
-1.7500000000000071
20
-102
30
2.2204460492503131e-15
40
0.895000000000028
210
-0
220
1.3877787807814184e-17
230
1
100
AcDbArc
50
270
51
360
0
LINE
5
25D
100
AcDbEntity
8
CUTOUTS
100
AcDbLine
10
-0.85500000000001464
20
-87
30
0
11
-0.85499999999999687
21
-102
31
0
0
ARC
5
25E
100
AcDbEntity
8
CUTOUTS
100
AcDbCircle
10
-1.7500000000000071
20
-87
30
0
40
0.89499999999999247
210
2.0231384283067879e-31
220
-2.775557561562892e-17
230
1
100
AcDbArc
50
0
51
89.999999999998863
0
LINE
5
25F
100
AcDbEntity
8
CUTOUTS
100
AcDbLine
10
-16.750000000000007
20
-86.105000000000018
30
2.2204460492503131e-15
11
-1.7499999999999893
21
-86.105000000000004
31
2.2204460492503131e-15
0
LINE
5
260
100
AcDbEntity
8
CUTOUTS
100
AcDbLine
10
18.144999999999989
20
-87
30
0
11
18.144999999999989
21
-102.00000000000001
31
0
0
ARC
5
261
100
AcDbEntity
8
CUTOUTS
100
AcDbCircle
10
17.249999999999996
20
-102.00000000000004
30
4.4408920985006262e-15
40
0.8949999999999747
210
0
220
-1.3877787807814457e-17
230
1
100
AcDbArc
50
-90
51
0
0
LINE
5
262
100
AcDbEntity
8
CUTOUTS
100
AcDbLine
10
17.249999999999996
20
-102.89500000000002
30
4.4408920985006262e-15
11
2.2499999999999964
21
-102.89500000000002
31
4.4408920985006262e-15
0
ARC
5
263
100
AcDbEntity
8
CUTOUTS
100
AcDbCircle
10
2.2499999999999964
20
-102.00000000000003
30
2.2204460492503131e-15
40
0.89499999999999247
210
0
220
-2.775557561562892e-17
230
1
100
AcDbArc
50
180
51
270
0
LINE
5
264
100
AcDbEntity
8
CUTOUTS
100
AcDbLine
10
1.355000000000004
20
-102.00000000000003
30
2.2204460492503131e-15
11
1.355000000000004
21
-87.000000000000028
31
2.2204460492503131e-15
0
ARC
5
265
100
AcDbEntity
8
CUTOUTS
100
AcDbCircle
10
2.2499999999999964
20
-87
30
0
40
0.89499999999999247
210
1.3684555315672042e-48
220
-2.7755575615628914e-17
230
1
100
AcDbArc
50
89.999999999999972
51
180
0
LINE
5
266
100
AcDbEntity
8
CUTOUTS
100
AcDbLine
10
2.2499999999999964
20
-86.105000000000018
30
2.2204460492503131e-15
11
17.250000000000014
21
-86.105000000000018
31
2.2204460492503131e-15
0
ARC
5
267
100
AcDbEntity
8
CUTOUTS
100
AcDbCircle
10
17.250000000000032
20
-87
30
4.4408920985006262e-15
40
0.89499999999995694
210
5.5088052040576103e-31
220
-1.7953029543566019e-44
230
1
100
AcDbArc
50
0
51
90.000000000001137
0
LINE
5
268
100
AcDbEntity
8
CUTOUTS
100
AcDbLine
10
26.750000000000007
20
-83.894999999999996
30
2.2204460492503131e-15
11
11.750000000000007
21
-83.89500000000001
31
2.2204460492503131e-15
0
ARC
5
269
100
AcDbEntity
8
CUTOUTS
100
AcDbCircle
10
11.749999999999989
20
-83.000000000000028
30
2.2204460492503131e-15
40
0.89499999999999247
210
-5.5088052040573922e-31
220
-2.775557561562892e-17
230
1
100
AcDbArc
50
180
51
270.00000000000114
0
LINE
5
26A
100
AcDbEntity
8
CUTOUTS
100
AcDbLine
10
10.854999999999997
20
-83
30
0
11
10.855000000000032
21
-68
31
0
0
ARC
5
26B
100
AcDbEntity
8
CUTOUTS
100
AcDbCircle
10
11.750000000000007
20
-68
30
0
40
0.89499999999998359
210
0
220
1.3877787807814457e-17
230
1
100
AcDbArc
50
90
51
180
0
LINE
5
26C
100
AcDbEntity
8
CUTOUTS
100
AcDbLine
10
11.750000000000007
20
-67.105000000000018
30
2.2204460492503131e-15
11
26.750000000000007
21
-67.105000000000032
31
2.2204460492503131e-15
0
ARC
5
26D
100
AcDbEntity
8
CUTOUTS
100
AcDbCircle
10
26.750000000000007
20
-68
30
0
40
0.8949999999999747
210
-1.9721522630525295e-31
220
1.9571207602302468e-45
230
1
100
AcDbArc
50
0
51
90
0
LINE
5
26E
100
AcDbEntity
8
CUTOUTS
100
AcDbLine
10
27.644999999999982
20
-68.000000000000014
30
0
11
27.644999999999982
21
-83
31
0
0
ARC
5
26F
100
AcDbEntity
8
CUTOUTS
100
AcDbCircle
10
26.749999999999972
20
-82.999999999999986
30
2.2204460492503131e-15
40
0.895000000000028
210
-1.339741425626724e-30
220
1.3877787807814184e-17
230
1
100
AcDbArc
50
-89.999999999997755
51
0
0
ARC
5
270
100
AcDbEntity
8
CUTOUTS
100
AcDbCircle
10
21.25
20
-102.00000000000003
30
2.2204460492503131e-15
40
0.89500000000001023
210
0
220
4.8928019005754225e-46
230
1
100
AcDbArc
50
180
51
270
0
LINE
5
271
100
AcDbEntity
8
CUTOUTS
100
AcDbLine
10
36.25
20
-102.89500000000002
30
4.4408920985006262e-15
11
21.25
21
-102.89500000000004
31
4.4408920985006262e-15
0
ARC
5
272
100
AcDbEntity
8
CUTOUTS
100
AcDbCircle
10
36.25
20
-102.00000000000003
30
2.2204460492503131e-15
40
0.89500000000001023
210
-0
220
0
230
1
100
AcDbArc
50
-90
51
0
0
LINE
5
273
100
AcDbEntity
8
CUTOUTS
100
AcDbLine
10
37.144999999999975
20
-87
30
0
11
37.14500000000001
21
-102.00000000000001
31
0
0
ARC
5
274
100
AcDbEntity
8
CUTOUTS
100
AcDbCircle
10
36.250000000000036
20
-86.999999999999972
30
2.2204460492503131e-15
40
0.89499999999993918
210
5.5088052040577189e-31
220
1.3877787807814454e-17
230
1
100
AcDbArc
50
0
51
90.000000000002288
0
LINE
5
275
100
AcDbEntity
8
CUTOUTS
100
AcDbLine
10
21.25
20
-86.105000000000018
30
2.2204460492503131e-15
11
36.25
21
-86.105000000000032
31
2.2204460492503131e-15
0
ARC
5
276
100
AcDbEntity
8
CUTOUTS
100
AcDbCircle
10
21.249999999999964
20
-87
30
0
40
0.89499999999999247
210
-3.1290013559046646e-31
220
-2.7755575615628914e-17
230
1
100
AcDbArc
50
89.99999999999774
51
180
0
LINE
5
277
100
AcDbEntity
8
CUTOUTS
100
AcDbLine
10
20.35499999999999
20
-102.00000000000003
30
2.2204460492503131e-15
11
20.354999999999954
21
-87.000000000000028
31
2.2204460492503131e-15
0
ARC
5
278
100
AcDbEntity
8
CUTOUTS
100
AcDbCircle
10
45.749999999999993
20
-68
30
0
40
0.8949999999999747
210
-1.9721522630525295e-31
220
1.9571207602302468e-45
230
1
100
AcDbArc
50
0
51
90
0
LINE
5
279
100
AcDbEntity
8
CUTOUTS
100
AcDbLine
10
30.749999999999993
20
-67.105000000000018
30
2.2204460492503131e-15
11
45.749999999999993
21
-67.105000000000032
31
2.2204460492503131e-15
0
ARC
5
27A
100
AcDbEntity
8
CUTOUTS
100
AcDbCircle
10
30.749999999999993
20
-68.000000000000043
30
4.4408920985006262e-15
40
0.89500000000001911
210
0
220
-1.387778780781432e-17
230
1
100
AcDbArc
50
90
51
180
0
LINE
5
27B
100
AcDbEntity
8
CUTOUTS
100
AcDbLine
10
29.854999999999983
20
-83
30
0
11
29.854999999999983
21
-68
31
0
0
ARC
5
27C
100
AcDbEntity
8
CUTOUTS
100
AcDbCircle
10
30.750000000000028
20
-82.999999999999972
30
0
40
0.89500000000004576
210
0
220
0
230
1
100
AcDbArc
50
180
51
269.99999999999773
0
LINE
5
27D
100
AcDbEntity
8
CUTOUTS
100
AcDbLine
10
45.749999999999993
20
-83.894999999999996
30
2.2204460492503131e-15
11
30.749999999999993
21
-83.89500000000001
31
2.2204460492503127e-15
0
ARC
5
27E
100
AcDbEntity
8
CUTOUTS
100
AcDbCircle
10
45.749999999999957
20
-82.999999999999986
30
2.2204460492503131e-15
40
0.895000000000028
210
-1.339741425626724e-30
220
1.3877787807814184e-17
230
1
100
AcDbArc
50
-89.999999999997755
51
0
0
LINE
5
27F
100
AcDbEntity
8
CUTOUTS
100
AcDbLine
10
46.644999999999968
20
-68.000000000000014
30
0
11
46.644999999999968
21
-83
31
0
0
ARC
5
280
100
AcDbEntity
8
CUTOUTS
100
AcDbCircle
10
40.749999999999993
20
-63.500000000000014
30
0
40
0.8949999999999747
210
-7.8886090522101181e-31
220
3.1169020766301239e-44
230
1
100
AcDbArc
50
-90.000000000002288
51
0
0
LINE
5
281
100
AcDbEntity
8
CUTOUTS
100
AcDbLine
10
41.644999999999968
20
-48.499999999999979
30
0
11
41.644999999999968
21
-63.499999999999986
31
0
0
ARC
5
282
100
AcDbEntity
8
CUTOUTS
100
AcDbCircle
10
40.749999999999957
20
-48.499999999999957
30
2.2204460492503131e-15
40
0.89500000000001023
210
-5.5088052040572818e-31
220
1.0933635532011991e-44
230
1
100
AcDbArc
50
0
51
90
0
LINE
5
283
100
AcDbEntity
8
CUTOUTS
100
AcDbLine
10
25.749999999999957
20
-47.60499999999999
30
0
11
40.749999999999957
21
-47.604999999999933
31
0
0
ARC
5
284
100
AcDbEntity
8
CUTOUTS
100
AcDbCircle
10
25.749999999999922
20
-48.499999999999957
30
2.2204460492503131e-15
40
0.89499999999995694
210
0
220
-0
230
1
100
AcDbArc
50
89.99999999999774
51
180
0
LINE
5
285
100
AcDbEntity
8
CUTOUTS
100
AcDbLine
10
24.854999999999983
20
-63.500000000000014
30
0
11
24.854999999999947
21
-48.499999999999979
31
0
0
ARC
5
286
100
AcDbEntity
8
CUTOUTS
100
AcDbCircle
10
25.749999999999886
20
-63.500000000000043
30
0
40
0.89499999999990365
210
-1.3371921173640928e-30
220
-1.387778780781446e-17
230
1
100
AcDbArc
50
180
51
270.00000000000449
0
LINE
5
287
100
AcDbEntity
8
CUTOUTS
100
AcDbLine
10
40.749999999999957
20
-64.394999999999996
30
2.2204460492503131e-15
11
25.749999999999957
21
-64.394999999999968
31
2.2204460492503131e-15
0
LINE
5
288
100
AcDbEntity
8
CUTOUTS
100
AcDbLine
10
65.644999999999982
20
-68.000000000000014
30
0
11
65.645000000000024
21
-83
31
0
0
ARC
5
289
100
AcDbEntity
8
CUTOUTS
100
AcDbCircle
10
64.750000000000057
20
-83.000000000000028
30
2.2204460492503131e-15
40
0.89499999999999247
210
0
220
0
230
1
100
AcDbArc
50
-90.000000000002757
51
0
0
LINE
5
28A
100
AcDbEntity
8
CUTOUTS
100
AcDbLine
10
64.750000000000014
20
-83.894999999999996
30
2.2204460492503131e-15
11
49.750000000000014
21
-83.89500000000001
31
2.2204460492503127e-15
0
ARC
5
28B
100
AcDbEntity
8
CUTOUTS
100
AcDbCircle
10
49.750000000000014
20
-83
30
0
40
0.89500000000001023
210
0
220
0
230
1
100
AcDbArc
50
180
51
270
0
LINE
5
28C
100
AcDbEntity
8
CUTOUTS
100
AcDbLine
10
48.855000000000004
20
-83
30
0
11
48.855000000000004
21
-68
31
0
0
ARC
5
28D
100
AcDbEntity
8
CUTOUTS
100
AcDbCircle
10
49.749999999999979
20
-68
30
0
40
0.89499999999998359
210
5.5088052040574474e-31
220
1.3877787807814457e-17
230
1
100
AcDbArc
50
89.99999999999774
51
180
0
LINE
5
28E
100
AcDbEntity
8
CUTOUTS
100
AcDbLine
10
49.750000000000014
20
-67.105000000000018
30
2.2204460492503131e-15
11
64.750000000000014
21
-67.105000000000047
31
2.2204460492503131e-15
0
ARC
5
28F
100
AcDbEntity
8
CUTOUTS
100
AcDbCircle
10
64.750000000000057
20
-67.999999999999986
30
2.2204460492503131e-15
40
0.89499999999993918
210
4.1316039030432889e-31
220
1.3877787807814454e-17
230
1
100
AcDbArc
50
0
51
90.000000000002728
0
ARC
5
290
100
AcDbEntity
8
CUTOUTS
100
AcDbCircle
10
74.25
20
-87
30
2.2204460492503131e-15
40
0.8949999999999747
210
-5.5088052040575008e-31
220
1.0933635532012861e-44
230
1
100
AcDbArc
50
0
51
89.999999999997272
0
LINE
5
291
100
AcDbEntity
8
CUTOUTS
100
AcDbLine
10
59.250000000000007
20
-86.105000000000018
30
2.2204460492503131e-15
11
74.250000000000043
21
-86.105000000000018
31
2.2204460492503131e-15
0
ARC
5
292
100
AcDbEntity
8
CUTOUTS
100
AcDbCircle
10
59.250000000000043
20
-87.000000000000028
30
0
40
0.895000000000028
210
-5.5088052040571732e-31
220
1.387778780781446e-17
230
1
100
AcDbArc
50
90.000000000002288
51
180
0
LINE
5
293
100
AcDbEntity
8
CUTOUTS
100
AcDbLine
10
58.354999999999997
20
-102.00000000000003
30
2.2204460492503131e-15
11
58.354999999999997
21
-87.000000000000028
31
2.2204460492503131e-15
0
ARC
5
294
100
AcDbEntity
8
CUTOUTS
100
AcDbCircle
10
59.250000000000043
20
-102
30
4.4408920985006262e-15
40
0.89500000000004576
210
-5.5088052040570638e-31
220
-1.7953029543562069e-44
230
1
100
AcDbArc
50
180
51
269.99999999999818
0
LINE
5
295
100
AcDbEntity
8
CUTOUTS
100
AcDbLine
10
74.25
20
-102.89500000000002
30
4.4408920985006262e-15
11
59.250000000000007
21
-102.89500000000004
31
4.4408920985006262e-15
0
ARC
5
296
100
AcDbEntity
8
CUTOUTS
100
AcDbCircle
10
74.249999999999972
20
-102
30
2.2204460492503131e-15
40
0.89500000000004576
210
2.379803848153e-31
220
1.3877787807814457e-17
230
1
100
AcDbArc
50
270.00000000000182
51
360
0
LINE
5
297
100
AcDbEntity
8
CUTOUTS
100
AcDbLine
10
75.144999999999982
20
-87
30
0
11
75.14500000000001
21
-102
31
0
0
ARC
5
298
100
AcDbEntity
8
CUTOUTS
100
AcDbCircle
10
57.750000000000057
20
-123.00000000000003
30
4.4408920985006262e-15
40
0.89499999999999247
210
-0
220
0
230
1
100
AcDbArc
50
270
51
360
0
LINE
5
299
100
AcDbEntity
8
CUTOUTS
100
AcDbLine
10
58.644999999999996
20
-106.00000000000001
30
0
11
58.645000000000032
21
-123.00000000000004
31
0
0
ARC
5
29A
100
AcDbEntity
8
CUTOUTS
100
AcDbCircle
10
57.750000000000021
20
-106
30
0
40
0.8949999999999747
210
-0
220
0
230
1
100
AcDbArc
50
0
51
89.999999999999545
0
LINE
5
29B
100
AcDbEntity
8
CUTOUTS
100
AcDbLine
10
37.750000000000945
20
-105.105
30
2.2204460492503131e-15
11
57.750000000000021
21
-105.105
31
2.2204460492503131e-15
0
ARC
5
29C
100
AcDbEntity
8
CUTOUTS
100
AcDbCircle
10
37.750000000000909
20
-106.00000000000067
30
2.2204460492503131e-15
40
0.89500000000066748
210
0
220
-0
230
1
100
AcDbArc
50
89.99999999999774
51
180
0
LINE
5
29D
100
AcDbEntity
8
CUTOUTS
100
AcDbLine
10
36.855000000000011
20
-123.00000000000003
30
4.4408920985006262e-15
11
36.85500000000026
21
-106.00000000000071
31
4.4408920985006262e-15
0
ARC
5
29E
100
AcDbEntity
8
CUTOUTS
100
AcDbCircle
10
37.74999999999995
20
-123.00000000000006
30
2.2204460492503131e-15
40
0.89499999999993918
210
1.1017610408115439e-30
220
1.3877787807814454e-17
230
1
100
AcDbArc
50
180
51
270.00000000000222
0
LINE
5
29F
100
AcDbEntity
8
CUTOUTS
100
AcDbLine
10
57.750000000000057
20
-123.895
30
4.4408920985006262e-15
11
37.749999999999986
21
-123.89499999999998
31
4.4408920985006262e-15
0
ARC
5
2A0
100
AcDbEntity
8
CUTOUTS
100
AcDbCircle
10
76.749999999999972
20
-123
30
2.2204460492503131e-15
40
0.89500000000001023
210
-0
220
0
230
1
100
AcDbArc
50
-90
51
0
0
LINE
5
2A1
100
AcDbEntity
8
CUTOUTS
100
AcDbLine
10
77.644999999999982
20
-106.00000000000001
30
0
11
77.644999999999982
21
-123
31
0
0
ARC
5
2A2
100
AcDbEntity
8
CUTOUTS
100
AcDbCircle
10
76.749999999999972
20
-106.00000000000001
30
0
40
0.89500000000001023
210
9.8607613152626476e-32
220
4.8928019005754225e-46
230
1
100
AcDbArc
50
0
51
90
0
LINE
5
2A3
100
AcDbEntity
8
CUTOUTS
100
AcDbLine
10
61.750000000000007
20
-105.10500000000002
30
2.2204460492503131e-15
11
76.749999999999972
21
-105.10500000000002
31
2.2204460492503131e-15
0
ARC
5
2A4
100
AcDbEntity
8
CUTOUTS
100
AcDbCircle
10
61.750000000000043
20
-106.00000000000007
30
2.2204460492503131e-15
40
0.89500000000004576
210
0
220
0
230
1
100
AcDbArc
50
90.000000000002288
51
180
0
LINE
5
2A5
100
AcDbEntity
8
CUTOUTS
100
AcDbLine
10
60.854999999999961
20
-123.00000000000003
30
4.4408920985006262e-15
11
60.854999999999997
21
-106.00000000000001
31
4.4408920985006262e-15
0
ARC
5
2A6
100
AcDbEntity
8
CUTOUTS
100
AcDbCircle
10
61.749999999999972
20
-123.00000000000003
30
4.4408920985006262e-15
40
0.89500000000001023
210
-5.5088052040572818e-31
220
-2.2017608552589401e-45
230
1
100
AcDbArc
50
180
51
270
0
LINE
5
2A7
100
AcDbEntity
8
CUTOUTS
100
AcDbLine
10
76.749999999999972
20
-123.89500000000001
30
2.2204460492503131e-15
11
61.749999999999972
21
-123.89500000000004
31
2.2204460492503127e-15
0
ARC
5
2A8
100
AcDbEntity
8
CUTOUTS
100
AcDbCircle
10
135.74999999999994
20
-122.99999999999997
30
4.4408920985006262e-15
40
0.89500000000004576
210
-5.5088052040572267e-31
220
1.3877787807815008e-17
230
1
100
AcDbArc
50
270.00000000000369
51
360
0
LINE
5
2A9
100
AcDbEntity
8
CUTOUTS
100
AcDbLine
10
136.64500000000001
20
-106.00000000000006
30
2.2204460492503131e-15
11
136.64500000000001
21
-123
31
2.2204460492503131e-15
0
ARC
5
2AA
100
AcDbEntity
8
CUTOUTS
100
AcDbCircle
10
135.74999999999994
20
-106.00000000000009
30
2.2204460492503131e-15
40
0.89500000000004576
210
0
220
-0
230
1
100
AcDbArc
50
0
51
89.999999999996362
0
LINE
5
2AB
100
AcDbEntity
8
CUTOUTS
100
AcDbLine
10
80.750000000000028
20
-105.10500000000005
30
4.4408920985006262e-15
11
135.75
21
-105.10500000000005
31
4.4408920985006262e-15
0
ARC
5
2AC
100
AcDbEntity
8
CUTOUTS
100
AcDbCircle
10
80.750000000000028
20
-106.00000000000003
30
2.2204460492503131e-15
40
0.89500000000001023
210
0
220
-0
230
1
100
AcDbArc
50
90
51
180
0
LINE
5
2AD
100
AcDbEntity
8
CUTOUTS
100
AcDbLine
10
79.855000000000018
20
-123.00000000000006
30
2.2204460492503131e-15
11
79.855000000000018
21
-106.00000000000003
31
2.2204460492503131e-15
0
ARC
5
2AE
100
AcDbEntity
8
CUTOUTS
100
AcDbCircle
10
80.75
20
-123.00000000000009
30
2.2204460492503131e-15
40
0.8949999999999747
210
0
220
0
230
1
100
AcDbArc
50
180
51
270
0
LINE
5
2AF
100
AcDbEntity
8
CUTOUTS
100
AcDbLine
10
135.75
20
-123.89500000000004
30
2.2204460492503131e-15
11
80.75
21
-123.89500000000005
31
2.2204460492503127e-15
0
LINE
5
2B0
100
AcDbEntity
8
CUTOUTS
100
AcDbLine
10
84.644999999999982
20
-68.000000000000014
30
0
11
84.64500000000001
21
-83
31
0
0
ARC
5
2B1
100
AcDbEntity
8
CUTOUTS
100
AcDbCircle
10
83.750000000000028
20
-83.000000000000028
30
2.2204460492503131e-15
40
0.89499999999999247
210
0
220
0
230
1
100
AcDbArc
50
-90.000000000001833
51
0
0
LINE
5
2B2
100
AcDbEntity
8
CUTOUTS
100
AcDbLine
10
83.75
20
-83.894999999999996
30
2.2204460492503131e-15
11
68.75
21
-83.89500000000001
31
2.2204460492503127e-15
0
ARC
5
2B3
100
AcDbEntity
8
CUTOUTS
100
AcDbCircle
10
68.75
20
-83
30
0
40
0.89500000000001023
210
0
220
0
230
1
100
AcDbArc
50
180
51
270
0
LINE
5
2B4
100
AcDbEntity
8
CUTOUTS
100
AcDbLine
10
67.85499999999999
20
-83
30
0
11
67.85499999999999
21
-68
31
0
0
ARC
5
2B5
100
AcDbEntity
8
CUTOUTS
100
AcDbCircle
10
68.749999999999972
20
-68
30
0
40
0.89499999999998359
210
5.5088052040574474e-31
220
1.3877787807814457e-17
230
1
100
AcDbArc
50
89.999999999998181
51
180
0
LINE
5
2B6
100
AcDbEntity
8
CUTOUTS
100
AcDbLine
10
68.75
20
-67.105000000000018
30
2.2204460492503131e-15
11
83.75
21
-67.105000000000047
31
2.2204460492503131e-15
0
ARC
5
2B7
100
AcDbEntity
8
CUTOUTS
100
AcDbCircle
10
83.750000000000028
20
-67.999999999999986
30
2.2204460492503131e-15
40
0.89499999999993918
210
4.1316039030432889e-31
220
1.3877787807814454e-17
230
1
100
AcDbArc
50
0
51
90.000000000001805
0
ARC
5
2B8
100
AcDbEntity
8
CUTOUTS
100
AcDbCircle
10
93.250000000000057
20
-86.999999999999972
30
2.2204460492503131e-15
40
0.89499999999993918
210
5.5088052040577189e-31
220
1.3877787807814454e-17
230
1
100
AcDbArc
50
0
51
90.000000000001805
0
LINE
5
2B9
100
AcDbEntity
8
CUTOUTS
100
AcDbLine
10
78.250000000000028
20
-86.105000000000018
30
2.2204460492503131e-15
11
93.250000000000028
21
-86.105000000000032
31
2.2204460492503131e-15
0
ARC
5
2BA
100
AcDbEntity
8
CUTOUTS
100
AcDbCircle
10
78.25
20
-87
30
0
40
0.89499999999999247
210
-3.1290013559046646e-31
220
-2.7755575615628914e-17
230
1
100
AcDbArc
50
89.999999999998181
51
180
0
LINE
5
2BB
100
AcDbEntity
8
CUTOUTS
100
AcDbLine
10
77.355000000000018
20
-102.00000000000003
30
2.2204460492503131e-15
11
77.35499999999999
21
-87.000000000000028
31
2.2204460492503131e-15
0
ARC
5
2BC
100
AcDbEntity
8
CUTOUTS
100
AcDbCircle
10
78.250000000000028
20
-102.00000000000003
30
2.2204460492503131e-15
40
0.89500000000001023
210
0
220
4.8928019005754225e-46
230
1
100
AcDbArc
50
180
51
270.00000000000091
0
LINE
5
2BD
100
AcDbEntity
8
CUTOUTS
100
AcDbLine
10
93.250000000000028
20
-102.89500000000002
30
4.4408920985006262e-15
11
78.250000000000028
21
-102.89500000000004
31
4.4408920985006262e-15
0
ARC
5
2BE
100
AcDbEntity
8
CUTOUTS
100
AcDbCircle
10
93.250000000000028
20
-102.00000000000003
30
2.2204460492503131e-15
40
0.89500000000001023
210
-0
220
0
230
1
100
AcDbArc
50
-90
51
0
0
LINE
5
2BF
100
AcDbEntity
8
CUTOUTS
100
AcDbLine
10
94.14500000000001
20
-87
30
0
11
94.145000000000039
21
-102.00000000000001
31
0
0
ARC
5
2C0
100
AcDbEntity
8
CUTOUTS
100
AcDbCircle
10
102.75000000000003
20
-68
30
0
40
0.8949999999999747
210
-1.9721522630525295e-31
220
1.9571207602302468e-45
230
1
100
AcDbArc
50
0
51
90.000000000001805
0
LINE
5
2C1
100
AcDbEntity
8
CUTOUTS
100
AcDbLine
10
87.750000000000028
20
-67.105000000000018
30
2.2204460492503131e-15
11
102.75000000000003
21
-67.105000000000032
31
2.2204460492503131e-15
0
ARC
5
2C2
100
AcDbEntity
8
CUTOUTS
100
AcDbCircle
10
87.750000000000028
20
-68.000000000000043
30
4.4408920985006262e-15
40
0.89500000000001911
210
0
220
-1.387778780781432e-17
230
1
100
AcDbArc
50
90
51
180
0
LINE
5
2C3
100
AcDbEntity
8
CUTOUTS
100
AcDbLine
10
86.855000000000018
20
-83
30
0
11
86.855000000000018
21
-68
31
0
0
ARC
5
2C4
100
AcDbEntity
8
CUTOUTS
100
AcDbCircle
10
87.750000000000057
20
-82.999999999999972
30
0
40
0.89500000000004576
210
0
220
0
230
1
100
AcDbArc
50
180
51
269.99999999999818
0
LINE
5
2C5
100
AcDbEntity
8
CUTOUTS
100
AcDbLine
10
102.75000000000003
20
-83.894999999999996
30
2.2204460492503131e-15
11
87.750000000000028
21
-83.89500000000001
31
2.2204460492503127e-15
0
ARC
5
2C6
100
AcDbEntity
8
CUTOUTS
100
AcDbCircle
10
102.74999999999999
20
-82.999999999999986
30
2.2204460492503131e-15
40
0.895000000000028
210
-1.339741425626724e-30
220
1.3877787807814184e-17
230
1
100
AcDbArc
50
-89.999999999997257
51
0
0
LINE
5
2C7
100
AcDbEntity
8
CUTOUTS
100
AcDbLine
10
103.645
20
-68.000000000000014
30
0
11
103.645
21
-83
31
0
0
ARC
5
2C8
100
AcDbEntity
8
CUTOUTS
100
AcDbCircle
10
78.749999999999929
20
-48.5
30
0
40
0.89500000000004576
210
0
220
-0
230
1
100
AcDbArc
50
0
51
89.999999999995467
0
LINE
5
2C9
100
AcDbEntity
8
CUTOUTS
100
AcDbLine
10
63.749999999999964
20
-47.60499999999999
30
0
11
78.75
21
-47.604999999999933
31
0
0
ARC
5
2CA
100
AcDbEntity
8
CUTOUTS
100
AcDbCircle
10
63.749999999999964
20
-48.499999999999979
30
0
40
0.8949999999999747
210
0
220
-0
230
1
100
AcDbArc
50
90
51
180
0
LINE
5
2CB
100
AcDbEntity
8
CUTOUTS
100
AcDbLine
10
62.85499999999999
20
-63.500000000000014
30
0
11
62.85499999999999
21
-48.499999999999979
31
0
0
ARC
5
2CC
100
AcDbEntity
8
CUTOUTS
100
AcDbCircle
10
63.749999999999964
20
-63.500000000000028
30
2.2204460492503131e-15
40
0.8949999999999747
210
-2.7544026020287504e-31
220
5.4668177660064307e-45
230
1
100
AcDbArc
50
180
51
269.99999999999773
0
LINE
5
2CD
100
AcDbEntity
8
CUTOUTS
100
AcDbLine
10
78.749999999999972
20
-64.394999999999996
30
2.2204460492503131e-15
11
63.749999999999929
21
-64.39500000000001
31
2.2204460492503131e-15
0
ARC
5
2CE
100
AcDbEntity
8
CUTOUTS
100
AcDbCircle
10
78.749999999999929
20
-63.499999999999979
30
0
40
0.89500000000001023
210
7.8886090522101181e-31
220
3.1458843561065413e-44
230
1
100
AcDbArc
50
-89.999999999997257
51
0
0
LINE
5
2CF
100
AcDbEntity
8
CUTOUTS
100
AcDbLine
10
79.644999999999982
20
-48.499999999999979
30
0
11
79.644999999999939
21
-63.499999999999979
31
0
0
ARC
5
2D0
100
AcDbEntity
8
CUTOUTS
100
AcDbCircle
10
101.7499999999999
20
-63.500000000000043
30
0
40
0.89499999999990365
210
-1.3371921173640928e-30
220
-1.387778780781446e-17
230
1
100
AcDbArc
50
180
51
270.00000000000449
0
LINE
5
2D1
100
AcDbEntity
8
CUTOUTS
100
AcDbLine
10
116.74999999999997
20
-64.394999999999996
30
2.2204460492503131e-15
11
101.74999999999997
21
-64.394999999999968
31
2.2204460492503131e-15
0
ARC
5
2D2
100
AcDbEntity
8
CUTOUTS
100
AcDbCircle
10
116.75
20
-63.500000000000014
30
0
40
0.8949999999999747
210
-7.8886090522101181e-31
220
3.1169020766301239e-44
230
1
100
AcDbArc
50
-90.000000000001833
51
0
0
LINE
5
2D3
100
AcDbEntity
8
CUTOUTS
100
AcDbLine
10
117.64499999999998
20
-48.499999999999979
30
0
11
117.64499999999998
21
-63.499999999999986
31
0
0
ARC
5
2D4
100
AcDbEntity
8
CUTOUTS
100
AcDbCircle
10
116.74999999999997
20
-48.499999999999957
30
2.2204460492503131e-15
40
0.89500000000001023
210
-5.5088052040572818e-31
220
1.0933635532011991e-44
230
1
100
AcDbArc
50
0
51
90
0
LINE
5
2D5
100
AcDbEntity
8
CUTOUTS
100
AcDbLine
10
101.74999999999997
20
-47.60499999999999
30
0
11
116.74999999999997
21
-47.604999999999933
31
0
0
ARC
5
2D6
100
AcDbEntity
8
CUTOUTS
100
AcDbCircle
10
101.74999999999994
20
-48.499999999999957
30
2.2204460492503131e-15
40
0.89499999999995694
210
0
220
-0
230
1
100
AcDbArc
50
89.999999999998181
51
180
0
LINE
5
2D7
100
AcDbEntity
8
CUTOUTS
100
AcDbLine
10
100.85499999999999
20
-63.500000000000014
30
0
11
100.85499999999996
21
-48.499999999999979
31
0
0
ARC
5
2D8
100
AcDbEntity
8
CUTOUTS
100
AcDbCircle
10
135.74999999999994
20
-48.5
30
0
40
0.89500000000004576
210
0
220
-0
230
1
100
AcDbArc
50
0
51
89.999999999994543
0
LINE
5
2D9
100
AcDbEntity
8
CUTOUTS
100
AcDbLine
10
120.75
20
-47.60499999999999
30
0
11
135.75000000000003
21
-47.604999999999933
31
0
0
ARC
5
2DA
100
AcDbEntity
8
CUTOUTS
100
AcDbCircle
10
120.75
20
-48.499999999999979
30
0
40
0.8949999999999747
210
0
220
-0
230
1
100
AcDbArc
50
90
51
180
0
LINE
5
2DB
100
AcDbEntity
8
CUTOUTS
100
AcDbLine
10
119.85500000000002
20
-63.500000000000014
30
0
11
119.85500000000002
21
-48.499999999999979
31
0
0
ARC
5
2DC
100
AcDbEntity
8
CUTOUTS
100
AcDbCircle
10
120.75
20
-63.500000000000028
30
2.2204460492503131e-15
40
0.8949999999999747
210
-2.7544026020287504e-31
220
5.4668177660064307e-45
230
1
100
AcDbArc
50
180
51
269.99999999999721
0
LINE
5
2DD
100
AcDbEntity
8
CUTOUTS
100
AcDbLine
10
135.75
20
-64.394999999999996
30
2.2204460492503131e-15
11
120.74999999999996
21
-64.39500000000001
31
2.2204460492503131e-15
0
ARC
5
2DE
100
AcDbEntity
8
CUTOUTS
100
AcDbCircle
10
135.74999999999994
20
-63.499999999999979
30
0
40
0.89500000000001023
210
7.8886090522101181e-31
220
3.1458843561065413e-44
230
1
100
AcDbArc
50
-89.999999999996334
51
0
0
LINE
5
2DF
100
AcDbEntity
8
CUTOUTS
100
AcDbLine
10
136.64500000000001
20
-48.499999999999979
30
0
11
136.64499999999998
21
-63.499999999999979
31
0
0
ARC
5
2E0
100
AcDbEntity
8
CUTOUTS
100
AcDbCircle
10
-25.749999999999993
20
-29.999999999999911
30
0
40
0.89499999999999247
210
-3.078015190650408e-31
220
-2.775557561562892e-17
230
1
100
AcDbArc
50
0
51
90.000000000001137
0
LINE
5
2E1
100
AcDbEntity
8
CUTOUTS
100
AcDbLine
10
-40.750000000000014
20
-29.104999999999972
30
-2.2204460492503131e-15
11
-25.750000000000011
21
-29.104999999999919
31
-2.2204460492503131e-15
0
ARC
5
2E2
100
AcDbEntity
8
CUTOUTS
100
AcDbCircle
10
-40.749999999999993
20
-29.999999999999964
30
2.2204460492503131e-15
40
0.89499999999999247
210
1.5645006779523323e-31
220
-2.7755575615628914e-17
230
1
100
AcDbArc
50
90.000000000001378
51
180
0
LINE
5
2E3
100
AcDbEntity
8
CUTOUTS
100
AcDbLine
10
-41.645000000000003
20
-45
30
0
11
-41.644999999999982
21
-29.999999999999964
31
0
0
ARC
5
2E4
100
AcDbEntity
8
CUTOUTS
100
AcDbCircle
10
-40.750000000000014
20
-45
30
0
40
0.89499999999999247
210
5.0986165254259034e-33
220
-2.775557561562892e-17
230
1
100
AcDbArc
50
180
51
270
0
LINE
5
2E5
100
AcDbEntity
8
CUTOUTS
100
AcDbLine
10
-25.750000000000011
20
-45.894999999999953
30
4.4408920985006262e-15
11
-40.750000000000014
21
-45.894999999999975
31
4.4408920985006262e-15
0
ARC
5
2E6
100
AcDbEntity
8
CUTOUTS
100
AcDbCircle
10
-25.749999999999993
20
-45.000000000000036
30
0
40
0.89499999999993918
210
2.7544026020288603e-31
220
1.3877787807814457e-17
230
1
100
AcDbArc
50
-90.000000000001123
51
0
0
LINE
5
2E7
100
AcDbEntity
8
CUTOUTS
100
AcDbLine
10
-24.855
20
-29.999999999999947
30
0
11
-24.855000000000054
21
-44.999999999999964
31
0
0
LINE
5
2E8
100
AcDbEntity
8
CUTOUTS
100
AcDbLine
10
-60.64500000000001
20
-45
30
0
11
-60.644999999999989
21
-29.999999999999964
31
0
0
ARC
5
2E9
100
AcDbEntity
8
CUTOUTS
100
AcDbCircle
10
-59.749999999999979
20
-29.999999999999982
30
0
40
0.89500000000001023
210
7.8886090522101181e-31
220
3.1458843561065413e-44
230
1
100
AcDbArc
50
90.000000000002288
51
180
0
LINE
5
2EA
100
AcDbEntity
8
CUTOUTS
100
AcDbLine
10
-59.750000000000014
20
-29.104999999999972
30
-2.2204460492503131e-15
11
-44.750000000000014
21
-29.104999999999936
31
-2.2204460492503131e-15
0
ARC
5
2EB
100
AcDbEntity
8
CUTOUTS
100
AcDbCircle
10
-44.749999999999979
20
-29.999999999999911
30
0
40
0.8949999999999747
210
-7.8886090522101181e-31
220
3.1313932163683949e-44
230
1
100
AcDbArc
50
0
51
90.000000000002288
0
LINE
5
2EC
100
AcDbEntity
8
CUTOUTS
100
AcDbLine
10
-43.855000000000004
20
-29.999999999999947
30
0
11
-43.85500000000004
21
-44.999999999999964
31
0
0
ARC
5
2ED
100
AcDbEntity
8
CUTOUTS
100
AcDbCircle
10
-44.749999999999979
20
-45.000000000000036
30
0
40
0.89499999999993918
210
5.5088052040577206e-31
220
1.3877787807814457e-17
230
1
100
AcDbArc
50
-90.000000000002288
51
0
0
LINE
5
2EE
100
AcDbEntity
8
CUTOUTS
100
AcDbLine
10
-44.750000000000014
20
-45.894999999999953
30
4.4408920985006262e-15
11
-59.750000000000014
21
-45.894999999999975
31
4.4408920985006262e-15
0
ARC
5
2EF
100
AcDbEntity
8
CUTOUTS
100
AcDbCircle
10
-59.750000000000028
20
-45.000000000000014
30
4.4408920985006262e-15
40
0.8949999999999747
210
-5.5088052040575008e-31
220
1.0933635532012861e-44
230
1
100
AcDbArc
50
180
51
270.00000000000091
0
LINE
5
2F0
100
AcDbEntity
8
CUTOUTS
100
AcDbLine
10
-62.855000000000018
20
-29.999999999999947
30
0
11
-62.855000000000061
21
-44.999999999999943
31
0
0
ARC
5
2F1
100
AcDbEntity
8
CUTOUTS
100
AcDbCircle
10
-63.750000000000014
20
-45.000000000000014
30
4.4408920985006262e-15
40
0.89499999999995694
210
0
220
-1.3877787807814183e-17
230
1
100
AcDbArc
50
-90
51
0
0
LINE
5
2F2
100
AcDbEntity
8
CUTOUTS
100
AcDbLine
10
-63.750000000000014
20
-45.894999999999953
30
4.4408920985006262e-15
11
-78.750000000000014
21
-45.894999999999996
31
4.4408920985006254e-15
0
ARC
5
2F3
100
AcDbEntity
8
CUTOUTS
100
AcDbCircle
10
-78.75
20
-45
30
0
40
0.89500000000001023
210
0
220
0
230
1
100
AcDbArc
50
180
51
269.99999999999909
0
LINE
5
2F4
100
AcDbEntity
8
CUTOUTS
100
AcDbLine
10
-79.64500000000001
20
-45
30
0
11
-79.644999999999982
21
-29.999999999999964
31
0
0
ARC
5
2F5
100
AcDbEntity
8
CUTOUTS
100
AcDbCircle
10
-78.749999999999986
20
-29.999999999999964
30
2.2204460492503131e-15
40
0.89499999999999247
210
1.6151816858296209e-30
220
-2.7755575615628914e-17
230
1
100
AcDbArc
50
90.000000000001805
51
180
0
LINE
5
2F6
100
AcDbEntity
8
CUTOUTS
100
AcDbLine
10
-78.750000000000014
20
-29.104999999999972
30
-2.2204460492503131e-15
11
-63.750000000000007
21
-29.104999999999972
31
-2.2204460492503131e-15
0
ARC
5
2F7
100
AcDbEntity
8
CUTOUTS
100
AcDbCircle
10
-63.75
20
-29.999999999999947
30
0
40
0.89499999999998359
210
-2.5493082627129212e-33
220
1.3877787807814457e-17
230
1
100
AcDbArc
50
0
51
90.000000000000455
0
ARC
5
2F8
100
AcDbEntity
8
CUTOUTS
100
AcDbCircle
10
-2.7500000000000036
20
-45
30
0
40
0.89499999999999247
210
5.0986165254259034e-33
220
-2.775557561562892e-17
230
1
100
AcDbArc
50
180
51
270
0
LINE
5
2F9
100
AcDbEntity
8
CUTOUTS
100
AcDbLine
10
12.249999999999996
20
-45.894999999999953
30
4.4408920985006262e-15
11
-2.7500000000000036
21
-45.894999999999975
31
4.4408920985006262e-15
0
ARC
5
2FA
100
AcDbEntity
8
CUTOUTS
100
AcDbCircle
10
12.250000000000014
20
-45.000000000000036
30
0
40
0.89499999999993918
210
2.7544026020288603e-31
220
1.3877787807814457e-17
230
1
100
AcDbArc
50
-90.000000000001123
51
0
0
LINE
5
2FB
100
AcDbEntity
8
CUTOUTS
100
AcDbLine
10
13.145000000000007
20
-29.999999999999947
30
0
11
13.144999999999953
21
-44.999999999999964
31
0
0
ARC
5
2FC
100
AcDbEntity
8
CUTOUTS
100
AcDbCircle
10
12.250000000000014
20
-29.999999999999911
30
0
40
0.89499999999999247
210
-3.078015190650408e-31
220
-2.775557561562892e-17
230
1
100
AcDbArc
50
0
51
90.000000000001137
0
LINE
5
2FD
100
AcDbEntity
8
CUTOUTS
100
AcDbLine
10
-2.7500000000000036
20
-29.104999999999972
30
-2.2204460492503131e-15
11
12.249999999999996
21
-29.104999999999919
31
-2.2204460492503131e-15
0
ARC
5
2FE
100
AcDbEntity
8
CUTOUTS
100
AcDbCircle
10
-2.7499999999999858
20
-29.999999999999964
30
2.2204460492503131e-15
40
0.89499999999999247
210
1.5645006779523323e-31
220
-2.7755575615628914e-17
230
1
100
AcDbArc
50
90.000000000001137
51
180
0
LINE
5
2FF
100
AcDbEntity
8
CUTOUTS
100
AcDbLine
10
-3.644999999999996
20
-45
30
0
11
-3.6449999999999783
21
-29.999999999999964
31
0
0
LINE
5
300
100
AcDbEntity
8
CUTOUTS
100
AcDbLine
10
-82.750000000000028
20
-45.894999999999953
30
4.4408920985006262e-15
11
-97.75
21
-45.894999999999996
31
4.4408920985006254e-15
0
ARC
5
301
100
AcDbEntity
8
CUTOUTS
100
AcDbCircle
10
-97.749999999999986
20
-44.999999999999986
30
4.4408920985006262e-15
40
0.895000000000028
210
-2.7544026020285871e-31
220
1.387778780781446e-17
230
1
100
AcDbArc
50
180
51
269.99999999999909
0
LINE
5
302
100
AcDbEntity
8
CUTOUTS
100
AcDbLine
10
-98.644999999999996
20
-45
30
0
11
-98.644999999999953
21
-29.999999999999964
31
0
0
ARC
5
303
100
AcDbEntity
8
CUTOUTS
100
AcDbCircle
10
-97.749999999999986
20
-29.999999999999964
30
2.2204460492503131e-15
40
0.89499999999999247
210
1.6151816858296205e-30
220
-2.7755575615628914e-17
230
1
100
AcDbArc
50
90.000000000002728
51
180
0
LINE
5
304
100
AcDbEntity
8
CUTOUTS
100
AcDbLine
10
-97.75
20
-29.104999999999972
30
-2.2204460492503131e-15
11
-82.75
21
-29.104999999999972
31
-2.2204460492503131e-15
0
ARC
5
305
100
AcDbEntity
8
CUTOUTS
100
AcDbCircle
10
-82.749999999999986
20
-29.999999999999947
30
0
40
0.8949999999999747
210
-2.5493082627129462e-33
220
1.3877787807814457e-17
230
1
100
AcDbArc
50
0
51
90.000000000000924
0
LINE
5
306
100
AcDbEntity
8
CUTOUTS
100
AcDbLine
10
-81.855000000000018
20
-29.999999999999947
30
0
11
-81.855000000000047
21
-44.999999999999943
31
0
0
ARC
5
307
100
AcDbEntity
8
CUTOUTS
100
AcDbCircle
10
-82.75
20
-45.000000000000014
30
4.4408920985006262e-15
40
0.89499999999995694
210
-1.3772013010143485e-31
220
-1.3877787807814183e-17
230
1
100
AcDbArc
50
-90.000000000001833
51
0
0
ARC
5
308
100
AcDbEntity
8
CUTOUTS
100
AcDbCircle
10
-101.75
20
-29.999999999999947
30
0
40
0.8949999999999747
210
-2.5493082627129462e-33
220
1.3877787807814457e-17
230
1
100
AcDbArc
50
0
51
90.000000000001805
0
LINE
5
309
100
AcDbEntity
8
CUTOUTS
100
AcDbLine
10
-116.75
20
-29.104999999999972
30
-2.2204460492503131e-15
11
-101.75
21
-29.104999999999972
31
-2.2204460492503131e-15
0
ARC
5
30A
100
AcDbEntity
8
CUTOUTS
100
AcDbCircle
10
-116.74999999999999
20
-29.999999999999964
30
2.2204460492503131e-15
40
0.89499999999999247
210
1.5645006779523323e-31
220
-2.7755575615628914e-17
230
1
100
AcDbArc
50
90.000000000000924
51
180
0
LINE
5
30B
100
AcDbEntity
8
CUTOUTS
100
AcDbLine
10
-117.64500000000001
20
-45
30
0
11
-117.64499999999998
21
-29.999999999999964
31
0
0
ARC
5
30C
100
AcDbEntity
8
CUTOUTS
100
AcDbCircle
10
-116.74999999999999
20
-45
30
0
40
0.895000000000028
210
2.5493082627128976e-33
220
-1.3877787807814457e-17
230
1
100
AcDbArc
50
180
51
269.99999999999909
0
LINE
5
30D
100
AcDbEntity
8
CUTOUTS
100
AcDbLine
10
-101.75
20
-45.894999999999953
30
4.4408920985006262e-15
11
-116.75
21
-45.894999999999996
31
4.4408920985006254e-15
0
ARC
5
30E
100
AcDbEntity
8
CUTOUTS
100
AcDbCircle
10
-101.75
20
-45.000000000000014
30
4.4408920985006262e-15
40
0.89499999999995694
210
-1.3772013010144028e-31
220
-1.3877787807814183e-17
230
1
100
AcDbArc
50
-90
51
0
0
LINE
5
30F
100
AcDbEntity
8
CUTOUTS
100
AcDbLine
10
-100.85500000000002
20
-29.999999999999947
30
0
11
-100.85500000000005
21
-44.999999999999943
31
0
0
LINE
5
310
100
AcDbEntity
8
CUTOUTS
100
AcDbLine
10
-120.75000000000003
20
-45.894999999999953
30
4.4408920985006262e-15
11
-135.75
21
-45.894999999999996
31
4.4408920985006254e-15
0
ARC
5
311
100
AcDbEntity
8
CUTOUTS
100
AcDbCircle
10
-135.75
20
-45
30
0
40
0.89500000000001023
210
2.5493082627129476e-33
220
-1.3877787807814457e-17
230
1
100
AcDbArc
50
180
51
270
0
LINE
5
312
100
AcDbEntity
8
CUTOUTS
100
AcDbLine
10
-136.64500000000001
20
-45
30
0
11
-136.64499999999998
21
-29.999999999999964
31
0
0
ARC
5
313
100
AcDbEntity
8
CUTOUTS
100
AcDbCircle
10
-135.75
20
-29.999999999999964
30
2.2204460492503131e-15
40
0.89499999999999247
210
4.8202045535502179e-31
220
-2.7755575615628914e-17
230
1
100
AcDbArc
50
90
51
180
0
LINE
5
314
100
AcDbEntity
8
CUTOUTS
100
AcDbLine
10
-135.75
20
-29.104999999999972
30
-2.2204460492503131e-15
11
-120.75000000000001
21
-29.104999999999972
31
-2.2204460492503131e-15
0
ARC
5
315
100
AcDbEntity
8
CUTOUTS
100
AcDbCircle
10
-120.75
20
-29.999999999999947
30
0
40
0.8949999999999747
210
-2.5493082627129462e-33
220
1.3877787807814457e-17
230
1
100
AcDbArc
50
0
51
90.000000000000924
0
LINE
5
316
100
AcDbEntity
8
CUTOUTS
100
AcDbLine
10
-119.85500000000002
20
-29.999999999999947
30
0
11
-119.85500000000005
21
-44.999999999999943
31
0
0
ARC
5
317
100
AcDbEntity
8
CUTOUTS
100
AcDbCircle
10
-120.75
20
-45.000000000000014
30
4.4408920985006262e-15
40
0.89499999999995694
210
-2.7544026020287513e-31
220
-1.3877787807814183e-17
230
1
100
AcDbArc
50
-90.000000000000924
51
0
0
LINE
5
318
100
AcDbEntity
8
CUTOUTS
100
AcDbLine
10
-110.35500000000002
20
-48.499999999999979
30
0
11
-110.35500000000005
21
-63.499999999999957
31
0
0
ARC
5
319
100
AcDbEntity
8
CUTOUTS
100
AcDbCircle
10
-111.25000000000001
20
-63.5
30
2.2204460492503131e-15
40
0.89499999999998359
210
-0
220
1.3877787807814321e-17
230
1
100
AcDbArc
50
-90
51
0
0
LINE
5
31A
100
AcDbEntity
8
CUTOUTS
100
AcDbLine
10
-111.25000000000001
20
-64.394999999999982
30
0
11
-135.75
21
-64.39500000000001
31
-2.4651903288156619e-31
0
ARC
5
31B
100
AcDbEntity
8
CUTOUTS
100
AcDbCircle
10
-135.75
20
-63.5
30
2.2204460492503131e-15
40
0.89499999999999247
210
1.9453090287229666e-73
220
-1.9602498125262601e-59
230
1
100
AcDbArc
50
180
51
270
0
LINE
5
31C
100
AcDbEntity
8
CUTOUTS
100
AcDbLine
10
-136.64500000000001
20
-63.500000000000007
30
4.4408920985006262e-15
11
-136.64500000000001
21
-48.5
31
4.4408920985006262e-15
0
ARC
5
31D
100
AcDbEntity
8
CUTOUTS
100
AcDbCircle
10
-135.75
20
-48.5
30
0
40
0.89499999999999247
210
-5.415155515588399e-31
220
-2.7755575615628914e-17
230
1
100
AcDbArc
50
90
51
180
0
LINE
5
31E
100
AcDbEntity
8
CUTOUTS
100
AcDbLine
10
-135.75
20
-47.60499999999999
30
0
11
-111.25000000000001
21
-47.60499999999999
31
4.9683521602135442e-31
0
ARC
5
31F
100
AcDbEntity
8
CUTOUTS
100
AcDbCircle
10
-111.25
20
-48.499999999999979
30
0
40
0.8949999999999747
210
2.5493082627129079e-33
220
-1.387778780781446e-17
230
1
100
AcDbArc
50
0
51
90.000000000000924
0
ARC
5
320
100
AcDbEntity
8
CUTOUTS
100
AcDbCircle
10
-106.25000000000001
20
-68.000000000000028
30
0
40
0.89500000000001023
210
-1.4026943836414498e-31
220
1.387778780781446e-17
230
1
100
AcDbArc
50
0
51
89.999999999999091
0
LINE
5
321
100
AcDbEntity
8
CUTOUTS
100
AcDbLine
10
-135.75
20
-67.105000000000018
30
2.2204460492503131e-15
11
-106.25000000000001
21
-67.105000000000018
31
2.2204460492503131e-15
0
ARC
5
322
100
AcDbEntity
8
CUTOUTS
100
AcDbCircle
10
-135.75
20
-68.000000000000028
30
0
40
0.89500000000000135
210
-9.8607613152626476e-32
220
-1.811392467283867e-47
230
1
100
AcDbArc
50
90
51
180
0
LINE
5
323
100
AcDbEntity
8
CUTOUTS
100
AcDbLine
10
-136.64500000000001
20
-83.000000000000028
30
2.2204460492503131e-15
11
-136.64500000000001
21
-68.000000000000028
31
2.2204460492503131e-15
0
ARC
5
324
100
AcDbEntity
8
CUTOUTS
100
AcDbCircle
10
-135.75
20
-83.000000000000028
30
2.2204460492503131e-15
40
0.89500000000001023
210
0
220
0
230
1
100
AcDbArc
50
180
51
270
0
LINE
5
325
100
AcDbEntity
8
CUTOUTS
100
AcDbLine
10
-106.25000000000003
20
-83.894999999999996
30
0
11
-135.75000000000003
21
-83.89500000000001
31
4.9303806576313238e-31
0
ARC
5
326
100
AcDbEntity
8
CUTOUTS
100
AcDbCircle
10
-106.25000000000003
20
-83
30
4.4408920985006262e-15
40
0.89500000000001023
210
-0
220
0
230
1
100
AcDbArc
50
-90
51
0
0
LINE
5
327
100
AcDbEntity
8
CUTOUTS
100
AcDbLine
10
-105.35500000000002
20
-68.000000000000014
30
0
11
-105.35500000000002
21
-82.999999999999986
31
0
0
ARC
5
328
100
AcDbEntity
8
CUTOUTS
100
AcDbCircle
10
-107.25
20
-63.500000000000007
30
4.4408920985006262e-15
40
0.89500000000001023
210
-1.3772013010143207e-31
220
1.387778780781446e-17
230
1
100
AcDbArc
50
180
51
269.99999999999909
0
LINE
5
329
100
AcDbEntity
8
CUTOUTS
100
AcDbLine
10
-92.250000000000014
20
-64.394999999999996
30
2.2204460492503131e-15
11
-107.25000000000001
21
-64.39500000000001
31
2.2204460492503131e-15
0
ARC
5
32A
100
AcDbEntity
8
CUTOUTS
100
AcDbCircle
10
-92.250000000000014
20
-63.500000000000021
30
0
40
0.89499999999996582
210
-0
220
0
230
1
100
AcDbArc
50
-90
51
0
0
LINE
5
32B
100
AcDbEntity
8
CUTOUTS
100
AcDbLine
10
-91.355000000000004
20
-48.499999999999979
30
0
11
-91.355000000000047
21
-63.499999999999986
31
0
0
ARC
5
32C
100
AcDbEntity
8
CUTOUTS
100
AcDbCircle
10
-92.25
20
-48.499999999999979
30
0
40
0.8949999999999747
210
-2.5493082627129462e-33
220
1.3877787807814457e-17
230
1
100
AcDbArc
50
0
51
90.000000000000924
0
LINE
5
32D
100
AcDbEntity
8
CUTOUTS
100
AcDbLine
10
-107.25000000000001
20
-47.60499999999999
30
0
11
-92.250000000000014
21
-47.60499999999999
31
-3.0619834238772078e-63
0
ARC
5
32E
100
AcDbEntity
8
CUTOUTS
100
AcDbCircle
10
-107.24999999999997
20
-48.5
30
0
40
0.89499999999999247
210
1.5645006779523323e-31
220
-2.7755575615628914e-17
230
1
100
AcDbArc
50
90.000000000001805
51
180
0
LINE
5
32F
100
AcDbEntity
8
CUTOUTS
100
AcDbLine
10
-108.14500000000001
20
-63.500000000000014
30
0
11
-108.14499999999998
21
-48.499999999999979
31
0
0
ARC
5
330
100
AcDbEntity
8
CUTOUTS
100
AcDbCircle
10
-102.25000000000001
20
-83.000000000000028
30
2.2204460492503131e-15
40
0.89500000000001023
210
-2.7544026020286409e-31
220
3.509697005775846e-45
230
1
100
AcDbArc
50
180
51
270.00000000000091
0
LINE
5
331
100
AcDbEntity
8
CUTOUTS
100
AcDbLine
10
-87.250000000000014
20
-83.894999999999996
30
2.2204460492503131e-15
11
-102.25000000000001
21
-83.89500000000001
31
2.2204460492503127e-15
0
ARC
5
332
100
AcDbEntity
8
CUTOUTS
100
AcDbCircle
10
-87.250000000000014
20
-83.000000000000043
30
2.2204460492503131e-15
40
0.8949999999999747
210
-3.3493535640669051e-31
220
-1.3877787807814457e-17
230
1
100
AcDbArc
50
-90
51
0
0
LINE
5
333
100
AcDbEntity
8
CUTOUTS
100
AcDbLine
10
-86.355000000000004
20
-68.000000000000014
30
0
11
-86.355000000000018
21
-83
31
0
0
ARC
5
334
100
AcDbEntity
8
CUTOUTS
100
AcDbCircle
10
-87.250000000000014
20
-68.000000000000014
30
0
40
0.89499999999999247
210
5.0986165254258418e-33
220
-2.775557561562892e-17
230
1
100
AcDbArc
50
0
51
90
0
LINE
5
335
100
AcDbEntity
8
CUTOUTS
100
AcDbLine
10
-102.25000000000001
20
-67.105000000000018
30
2.2204460492503131e-15
11
-87.250000000000014
21
-67.105000000000018
31
2.2204460492503131e-15
0
ARC
5
336
100
AcDbEntity
8
CUTOUTS
100
AcDbCircle
10
-102.25000000000001
20
-68.000000000000014
30
0
40
0.89499999999999247
210
0
220
-2.7755575615628914e-17
230
1
100
AcDbArc
50
90
51
180
0
LINE
5
337
100
AcDbEntity
8
CUTOUTS
100
AcDbLine
10
-103.14500000000001
20
-83
30
0
11
-103.14499999999998
21
-68
31
0
0
LINE
5
338
100
AcDbEntity
8
CUTOUTS
100
AcDbLine
10
-72.355000000000004
20
-48.499999999999979
30
0
11
-72.355000000000032
21
-63.499999999999986
31
0
0
ARC
5
339
100
AcDbEntity
8
CUTOUTS
100
AcDbCircle
10
-73.25
20
-63.500000000000021
30
0
40
0.89499999999996582
210
0
220
0
230
1
100
AcDbArc
50
-90.000000000000924
51
0
0
LINE
5
33A
100
AcDbEntity
8
CUTOUTS
100
AcDbLine
10
-73.250000000000014
20
-64.394999999999996
30
2.2204460492503131e-15
11
-88.25
21
-64.39500000000001
31
2.2204460492503131e-15
0
ARC
5
33B
100
AcDbEntity
8
CUTOUTS
100
AcDbCircle
10
-88.25
20
-63.500000000000007
30
4.4408920985006262e-15
40
0.89500000000001023
210
-1.9144311076320878e-73
220
1.9291347361369544e-59
230
1
100
AcDbArc
50
180
51
270
0
LINE
5
33C
100
AcDbEntity
8
CUTOUTS
100
AcDbLine
10
-89.14500000000001
20
-63.500000000000014
30
0
11
-89.144999999999968
21
-48.499999999999979
31
0
0
ARC
5
33D
100
AcDbEntity
8
CUTOUTS
100
AcDbCircle
10
-88.249999999999972
20
-48.5
30
0
40
0.89499999999999247
210
1.6151816858296209e-30
220
-2.7755575615628914e-17
230
1
100
AcDbArc
50
90.000000000001805
51
180
0
LINE
5
33E
100
AcDbEntity
8
CUTOUTS
100
AcDbLine
10
-88.25
20
-47.60499999999999
30
0
11
-73.25
21
-47.60499999999999
31
-3.0619834238772078e-63
0
ARC
5
33F
100
AcDbEntity
8
CUTOUTS
100
AcDbCircle
10
-73.25
20
-48.499999999999979
30
0
40
0.89499999999998359
210
-2.5493082627129212e-33
220
1.3877787807814457e-17
230
1
100
AcDbArc
50
0
51
90
0
ARC
5
340
100
AcDbEntity
8
CUTOUTS
100
AcDbCircle
10
-68.25
20
-68.000000000000014
30
0
40
0.89499999999999247
210
5.0986165254258418e-33
220
-2.775557561562892e-17
230
1
100
AcDbArc
50
0
51
90
0
LINE
5
341
100
AcDbEntity
8
CUTOUTS
100
AcDbLine
10
-83.25
20
-67.105000000000018
30
2.2204460492503131e-15
11
-68.25
21
-67.105000000000018
31
2.2204460492503131e-15
0
ARC
5
342
100
AcDbEntity
8
CUTOUTS
100
AcDbCircle
10
-83.25
20
-68.000000000000014
30
0
40
0.89499999999999247
210
0
220
-2.7755575615628914e-17
230
1
100
AcDbArc
50
90
51
180
0
LINE
5
343
100
AcDbEntity
8
CUTOUTS
100
AcDbLine
10
-84.14500000000001
20
-83
30
0
11
-84.14500000000001
21
-68
31
0
0
ARC
5
344
100
AcDbEntity
8
CUTOUTS
100
AcDbCircle
10
-83.250000000000028
20
-83.000000000000043
30
2.2204460492503131e-15
40
0.8949999999999747
210
2.7544026020287504e-31
220
1.3877787807814457e-17
230
1
100
AcDbArc
50
180
51
270.00000000000091
0
LINE
5
345
100
AcDbEntity
8
CUTOUTS
100
AcDbLine
10
-68.250000000000014
20
-83.894999999999996
30
2.2204460492503131e-15
11
-83.25
21
-83.89500000000001
31
2.2204460492503131e-15
0
ARC
5
346
100
AcDbEntity
8
CUTOUTS
100
AcDbCircle
10
-68.25
20
-83.000000000000043
30
2.2204460492503131e-15
40
0.8949999999999747
210
-3.3493535640669051e-31
220
-1.3877787807814457e-17
230
1
100
AcDbArc
50
-90.000000000000924
51
0
0
LINE
5
347
100
AcDbEntity
8
CUTOUTS
100
AcDbLine
10
-67.355000000000004
20
-68.000000000000014
30
0
11
-67.355000000000032
21
-83
31
0
0
ARC
5
348
100
AcDbEntity
8
CUTOUTS
100
AcDbCircle
10
-96.750000000000028
20
-102.00000000000001
30
0
40
0.89500000000001023
210
-0
220
0
230
1
100
AcDbArc
50
-90
51
0
0
LINE
5
349
100
AcDbEntity
8
CUTOUTS
100
AcDbLine
10
-95.855000000000018
20
-87
30
0
11
-95.855000000000018
21
-102
31
0
0
ARC
5
34A
100
AcDbEntity
8
CUTOUTS
100
AcDbCircle
10
-96.750000000000043
20
-87
30
0
40
0.89500000000001023
210
2.5493082627129455e-33
220
-1.3877787807814457e-17
230
1
100
AcDbArc
50
0
51
90
0
LINE
5
34B
100
AcDbEntity
8
CUTOUTS
100
AcDbLine
10
-135.75
20
-86.105000000000004
30
2.2204460492503131e-15
11
-96.750000000000028
21
-86.105000000000004
31
2.2204460492503135e-15
0
ARC
5
34C
100
AcDbEntity
8
CUTOUTS
100
AcDbCircle
10
-135.75
20
-87
30
0
40
0.89500000000001023
210
0
220
-0
230
1
100
AcDbArc
50
90
51
180
0
LINE
5
34D
100
AcDbEntity
8
CUTOUTS
100
AcDbLine
10
-136.64500000000001
20
-102
30
2.2204460492503131e-15
11
-136.64500000000001
21
-87.000000000000014
31
2.2204460492503131e-15
0
ARC
5
34E
100
AcDbEntity
8
CUTOUTS
100
AcDbCircle
10
-135.75
20
-102.00000000000001
30
2.2204460492503131e-15
40
0.89500000000001023
210
0
220
0
230
1
100
AcDbArc
50
180
51
270
0
LINE
5
34F
100
AcDbEntity
8
CUTOUTS
100
AcDbLine
10
-96.750000000000028
20
-102.89500000000002
30
4.4408920985006262e-15
11
-135.75
21
-102.89500000000002
31
4.4408920985006262e-15
0
ARC
5
350
100
AcDbEntity
8
CUTOUTS
100
AcDbCircle
10
-92.75
20
-102.00000000000001
30
2.2204460492503131e-15
40
0.89500000000001023
210
-2.7544026020286409e-31
220
3.5096970057758267e-45
230
1
100
AcDbArc
50
180
51
270
0
LINE
5
351
100
AcDbEntity
8
CUTOUTS
100
AcDbLine
10
-77.750000000000014
20
-102.89500000000002
30
4.4408920985006262e-15
11
-92.75
21
-102.89500000000002
31
4.4408920985006262e-15
0
ARC
5
352
100
AcDbEntity
8
CUTOUTS
100
AcDbCircle
10
-77.75
20
-102.00000000000001
30
2.2204460492503131e-15
40
0.89500000000001023
210
1.3772013010143272e-31
220
1.3877787807814457e-17
230
1
100
AcDbArc
50
-90.000000000000924
51
0
0
LINE
5
353
100
AcDbEntity
8
CUTOUTS
100
AcDbLine
10
-76.855000000000018
20
-87
30
0
11
-76.85499999999999
21
-102
31
0
0
ARC
5
354
100
AcDbEntity
8
CUTOUTS
100
AcDbCircle
10
-77.75
20
-87
30
0
40
0.89499999999999247
210
5.0986165254258418e-33
220
-2.775557561562892e-17
230
1
100
AcDbArc
50
0
51
90
0
LINE
5
355
100
AcDbEntity
8
CUTOUTS
100
AcDbLine
10
-92.75
20
-86.105000000000018
30
2.2204460492503131e-15
11
-77.75
21
-86.105000000000018
31
2.2204460492503131e-15
0
ARC
5
356
100
AcDbEntity
8
CUTOUTS
100
AcDbCircle
10
-92.75
20
-87
30
0
40
0.89499999999999247
210
0
220
-2.7755575615628914e-17
230
1
100
AcDbArc
50
90
51
180
0
LINE
5
357
100
AcDbEntity
8
CUTOUTS
100
AcDbLine
10
-93.64500000000001
20
-102.00000000000001
30
2.2204460492503131e-15
11
-93.644999999999996
21
-87.000000000000014
31
2.2204460492503131e-15
0
LINE
5
358
100
AcDbEntity
8
PERIMETER
100
AcDbLine
10
142.35500000000002
20
-124.50000000000003
30
2.2204460492503131e-15
11
142.35499999999999
21
-12.499999999999947
31
2.2204460492503131e-15
0
ARC
5
359
100
AcDbEntity
8
PERIMETER
100
AcDbCircle
10
137.25
20
-12.499999999999964
30
2.2204460492503131e-15
40
5.1049999999999685
210
4.8289722405791915e-32
220
1.6803090826301373e-46
230
1
100
AcDbArc
50
0
51
90
0
LINE
5
35A
100
AcDbEntity
8
PERIMETER
100
AcDbLine
10
137.25
20
-7.3949999999999783
30
2.2204460492503131e-15
11
64.604999999999933
21
-7.3949999999999605
31
2.2204460492503131e-15
0
LINE
5
35B
100
AcDbEntity
8
PERIMETER
100
AcDbLine
10
64.604999999999933
20
-7.3949999999999605
30
0
11
64.604999999999933
21
23.500000000000032
31
0
0
ARC
5
35C
100
AcDbEntity
8
PERIMETER
100
AcDbCircle
10
69.499999999999957
20
23.499999999999961
30
-2.2204460492503131e-15
40
4.8950000000000315
210
0
220
-0
230
1
100
AcDbArc
50
90
51
180
0
LINE
5
35D
100
AcDbEntity
8
PERIMETER
100
AcDbLine
10
69.499999999999957
20
28.39500000000001
30
0
11
82.5
21
28.395000000000028
31
2.4651903288156619e-31
0
ARC
5
35E
100
AcDbEntity
8
PERIMETER
100
AcDbCircle
10
82.5
20
30.499999999999972
30
0
40
2.1049999999999613
210
-0
220
0
230
1
100
AcDbArc
50
-90
51
0
0
LINE
5
35F
100
AcDbEntity
8
PERIMETER
100
AcDbLine
10
84.604999999999961
20
30.499999999999972
30
0
11
84.604999999999961
21
39.500000000000064
31
0
0
ARC
5
360
100
AcDbEntity
8
PERIMETER
100
AcDbCircle
10
82.500000000000028
20
39.500000000000099
30
2.2204460492503131e-15
40
2.1049999999999258
210
0
220
-0
230
1
100
AcDbArc
50
0
51
90
0
LINE
5
361
100
AcDbEntity
8
PERIMETER
100
AcDbLine
10
82.500000000000028
20
41.60499999999999
30
-2.2204460492503131e-15
11
69.499999999999957
21
41.60499999999999
31
-2.2204460492503131e-15
0
ARC
5
362
100
AcDbEntity
8
PERIMETER
100
AcDbCircle
10
69.499999999999957
20
46.500000000000128
30
0
40
4.8950000000000315
210
-9.8607613152626476e-32
220
-7.1567848024760374e-46
230
1
100
AcDbArc
50
180
51
270
0
LINE
5
363
100
AcDbEntity
8
PERIMETER
100
AcDbLine
10
64.604999999999933
20
46.500000000000092
30
0
11
64.604999999999933
21
67.5
31
0
0
ARC
5
364
100
AcDbEntity
8
PERIMETER
100
AcDbCircle
10
59.499999999999922
20
67.499999999999972
30
0
40
5.105000000000004
210
0
220
0
230
1
100
AcDbArc
50
0
51
90
0
LINE
5
365
100
AcDbEntity
8
PERIMETER
100
AcDbLine
10
59.499999999999922
20
72.604999999999961
30
4.4408920985006262e-15
11
54.604999999999926
21
72.604999999999961
31
4.4408920985006262e-15
0
LINE
5
366
100
AcDbEntity
8
PERIMETER
100
AcDbLine
10
54.604999999999926
20
72.604999999999961
30
4.4408920985006262e-15
11
54.604999999999926
21
129.60500000000002
31
4.4408920985006262e-15
0
LINE
5
367
100
AcDbEntity
8
PERIMETER
100
AcDbLine
10
54.604999999999926
20
129.60500000000002
30
8.8817841970012523e-15
11
-75.605000000000047
21
129.60500000000002
31
8.8817841970012523e-15
0
LINE
5
368
100
AcDbEntity
8
PERIMETER
100
AcDbLine
10
-75.605000000000047
20
129.60500000000002
30
8.8817841970012523e-15
11
-75.605000000000047
21
72.60499999999999
31
8.8817841970012523e-15
0
LINE
5
369
100
AcDbEntity
8
PERIMETER
100
AcDbLine
10
-75.605000000000047
20
72.605000000000004
30
4.4408920985006262e-15
11
-80.499999999999986
21
72.604999999999961
31
4.4408920985006254e-15
0
ARC
5
36A
100
AcDbEntity
8
PERIMETER
100
AcDbCircle
10
-80.499999999999986
20
67.499999999999972
30
0
40
5.105000000000004
210
0
220
-0
230
1
100
AcDbArc
50
90
51
180
0
LINE
5
36B
100
AcDbEntity
8
PERIMETER
100
AcDbLine
10
-85.605000000000018
20
67.499999999999972
30
0
11
-85.605000000000047
21
-7.3949999999999871
31
0
0
LINE
5
36C
100
AcDbEntity
8
PERIMETER
100
AcDbLine
10
-85.605000000000047
20
-7.3949999999999605
30
0
11
-137.25
21
-7.3949999999999605
31
0
0
ARC
5
36D
100
AcDbEntity
8
PERIMETER
100
AcDbCircle
10
-137.25
20
-12.499999999999964
30
2.2204460492503131e-15
40
5.1050000000000031
210
4.9303806576313238e-32
220
1.715595573365348e-46
230
1
100
AcDbArc
50
90
51
180
0
LINE
5
36E
100
AcDbEntity
8
PERIMETER
100
AcDbLine
10
-142.35499999999999
20
-12.499999999999947
30
4.4408920985006262e-15
11
-142.35499999999999
21
-124.50000000000003
31
4.4408920985006262e-15
0
ARC
5
36F
100
AcDbEntity
8
PERIMETER
100
AcDbCircle
10
-137.25
20
-124.50000000000003
30
4.4408920985006262e-15
40
5.1049999999999862
210
0
220
0
230
1
100
AcDbArc
50
180
51
270
0
LINE
5
370
100
AcDbEntity
8
PERIMETER
100
AcDbLine
10
-137.25
20
-129.60500000000002
30
4.4408920985006262e-15
11
137.25
21
-129.60500000000002
31
4.4408920985006262e-15
0
ARC
5
371
100
AcDbEntity
8
PERIMETER
100
AcDbCircle
10
137.25
20
-124.50000000000001
30
4.4408920985006262e-15
40
5.1049999999999862
210
-0
220
0
230
1
100
AcDbArc
50
270
51
360
0
ENDSEC
0
SECTION
2
OBJECTS
0
DICTIONARY
5
C
100
AcDbDictionary
3
ACAD_GROUP
350
D
3
ACAD_MLINESTYLE
350
17
0
DICTIONARY
5
D
100
AcDbDictionary
0
DICTIONARY
5
1A
330
C
100
AcDbDictionary
0
DICTIONARY
5
17
100
AcDbDictionary
0
ENDSEC
0
EOF
